<?xml version="1.0" encoding="UTF-8"?>
<svg id="_圖層_2" data-name="圖層 2" xmlns="http://www.w3.org/2000/svg" viewBox="0 0 310.75 305.35">
  <defs>
    <style>
      .cls-1, .cls-2, .cls-3, .cls-4 {
        fill-rule: evenodd;
      }

      .cls-1, .cls-5 {
        fill: #fff;
      }

      .cls-6, .cls-4 {
        fill: #e1041a;
      }

      .cls-2 {
        fill: #008f41;
      }

      .cls-3 {
        fill: #f0e1ea;
      }
    </style>
  </defs>
  <g id="_圖層_1-2" data-name="圖層 1">
    <path class="cls-4" d="M155.3,305.35c85.61,0,155.45-68.62,155.45-152.64S240.91,0,155.3,0,0,68.62,0,152.71s69.84,152.64,155.3,152.64Z"/>
    <path class="cls-3" d="M155.3,268.7c65.16,0,118.22-52.13,118.22-115.99s-53.06-116.14-118.22-116.14-118.08,52.13-118.08,116.14,53.06,115.99,118.08,115.99Z"/>
    <path class="cls-1" d="M155.3,8.71l7.56.14,7.49.58,7.27.94,7.27,1.22,7.06,1.66,6.98,1.94,6.77,2.23,6.7,2.59,6.48,2.88,6.34,3.17,6.12,3.46,5.9,3.74,5.76,4.03,5.54,4.32,5.33,4.46,5.11,4.82,4.82,4.97,4.61,5.26,4.39,5.4,4.03,5.69,3.82,5.83,3.53,6.05,3.24,6.19,2.95,6.34,2.59,6.55,2.3,6.7,2.02,6.84,1.66,6.98,1.3,7.06.94,7.2.5,7.34.22,7.42-.22,7.34-.5,7.27-.94,7.2-1.3,7.13-1.66,6.91-2.02,6.84-2.3,6.7-2.59,6.55-2.95,6.41-3.24,6.19-3.53,6.05-3.82,5.83-4.03,5.62-4.39,5.47-4.61,5.18-4.82,5.04-5.11,4.75-5.33,4.54-5.54,4.25-5.76,4.03-5.9,3.74-6.12,3.46-6.34,3.17-6.48,2.88-6.7,2.59-6.77,2.3-6.98,1.94-7.06,1.58-7.27,1.3-7.27.86-7.49.58-7.56.22h0v-33.34h0l5.83-.14,5.69-.43,5.69-.72,5.54-.94,5.4-1.3,5.4-1.44,5.18-1.73,5.11-2.02,5.04-2.23,4.82-2.45,4.75-2.66,4.54-2.88,4.39-3.1,4.32-3.24,4.03-3.53,3.96-3.6,3.67-3.89,3.6-4.03,3.31-4.18,3.17-4.32,2.88-4.46,2.74-4.68,2.52-4.75,2.23-4.9,2.02-5.04,1.8-5.11,1.51-5.26,1.22-5.4,1.01-5.4.72-5.54.43-5.62.14-5.62-.14-5.69-.43-5.62-.72-5.54-1.01-5.47-1.22-5.33-1.51-5.26-1.8-5.18-2.02-4.97-2.23-4.97-2.52-4.75-2.74-4.61-2.88-4.54-3.17-4.32-3.31-4.18-3.6-4.03-3.67-3.82-3.96-3.67-4.03-3.46-4.32-3.31-4.39-3.1-4.54-2.88-4.75-2.66-4.82-2.45-5.04-2.23-5.11-1.94-5.18-1.73-5.4-1.51-5.4-1.22-5.54-1.01-5.69-.65-5.69-.43-5.83-.14h0V8.71h0ZM155.3,296.64l-7.49-.22-7.42-.58-7.27-.86-7.27-1.3-7.06-1.58-6.98-1.94-6.77-2.3-6.7-2.59-6.48-2.88-6.34-3.17-6.12-3.46-5.98-3.74-5.69-4.03-5.54-4.25-5.33-4.54-5.11-4.75-4.82-5.04-4.61-5.18-4.39-5.47-4.03-5.62-3.82-5.83-3.53-6.05-3.24-6.19-2.95-6.41-2.66-6.55-2.3-6.7-1.94-6.84-1.66-6.91-1.3-7.13-.94-7.2-.5-7.27-.22-7.34.22-7.42.5-7.34.94-7.2,1.3-7.06,1.66-6.98,1.94-6.84,2.3-6.7,2.66-6.55,2.95-6.34,3.24-6.19,3.53-6.05,3.82-5.83,4.03-5.69,4.39-5.4,4.61-5.26,4.82-4.97,5.11-4.82,5.33-4.46,5.54-4.32,5.69-4.03,5.98-3.74,6.12-3.46,6.34-3.17,6.48-2.88,6.7-2.59,6.77-2.23,6.98-1.94,7.06-1.66,7.27-1.22,7.27-.94,7.42-.58,7.49-.14v33.34l-5.76.14-5.69.43-5.62.65-5.54,1.01-5.4,1.22-5.4,1.51-5.18,1.73-5.11,1.94-5.04,2.23-4.82,2.45-4.75,2.66-4.54,2.88-4.46,3.1-4.25,3.31-4.03,3.46-3.96,3.67-3.74,3.82-3.53,4.03-3.31,4.18-3.17,4.32-2.95,4.54-2.66,4.61-2.52,4.75-2.23,4.97-2.02,4.97-1.8,5.18-1.51,5.26-1.22,5.33-1.01,5.47-.72,5.54-.43,5.62-.14,5.69.14,5.62.43,5.62.72,5.54,1.01,5.4,1.22,5.4,1.51,5.26,1.8,5.11,2.02,5.04,2.23,4.9,2.52,4.75,2.66,4.68,2.95,4.46,3.17,4.32,3.31,4.18,3.53,4.03,3.74,3.89,3.96,3.6,4.03,3.53,4.25,3.24,4.46,3.1,4.54,2.88,4.75,2.66,4.82,2.45,5.04,2.23,5.11,2.02,5.18,1.73,5.4,1.44,5.4,1.3,5.54.94,5.62.72,5.69.43,5.76.14v33.34Z"/>
    <path class="cls-2" d="M155.3,9.86c80.35,0,145.44,63.94,145.44,142.85s-65.09,142.78-145.44,142.78h0v-31.03h0c62.86,0,113.83-50.11,113.83-111.74s-50.98-111.82-113.83-111.82h0V9.86h0ZM155.3,295.49c-80.21,0-145.3-64.01-145.3-142.78S75.1,9.86,155.3,9.86v31.03c-62.71,0-113.69,50.04-113.69,111.82s50.98,111.74,113.69,111.74v31.03Z"/>
    <path class="cls-4" d="M155.3,47.74c57.67,0,104.62,45.07,106.42,101.3h-16.2c-3.46-36.58-21.82-61.2-47.52-73.87,20.74,18.36,34.85,42.55,36,73.87h-17.57c-6.05-37.8-27.29-69.19-61.13-83.66-25.42,10.37-54.22,36.72-61.13,83.66h-17.42c1.15-31.32,15.26-55.51,36-73.87-25.7,12.67-44.14,37.3-47.52,73.87h-16.2c1.8-56.23,48.74-101.3,106.27-101.3Z"/>
    <path class="cls-5" d="M81.86,61.49v-1.94c2.52-1.94,4.18-3.17,5.18-3.82.58-.43.94-.79,1.01-1.08.07-.36-.36-1.08-1.22-2.16-.65-.86-1.15-1.37-1.37-1.37-.36,0-1.3.5-2.81,1.58.36.36.72.5,1.15.36.36-.22.79-.65,1.3-1.37.29-.29.5-.22.65.22.22.5.22.94.07,1.37,0,.22-.58.58-1.51,1.01-.58.29-1.01.36-1.3.29-.36-.07-.72-.29-1.15-.79v-2.38l.07.14c2.16-1.66,3.6-2.45,4.25-2.45.58.07,1.01.36,1.37,1.01.58.94,1.15,1.94,1.94,3.02.65.79.86,1.44.72,1.94-.14.58-.65,1.08-1.44,1.44-.43.22-1.73,1.08-3.74,2.52-1.3.86-2.38,1.73-3.17,2.45h0ZM81.86,58.46c.79-.72,2.09-1.66,3.89-2.88.5-.36.72-.65.58-.94-.07-.29-.22-.43-.43-.5-.36,0-.94.22-1.66.79l-2.38,1.66v1.87h0ZM81.86,50.54c2.16-1.58,4.39-2.59,6.62-3.17.94-.22,1.37-1.08,1.44-2.52v-.72c-.07-.58-.29-.65-.79-.36-.29.29-2.74,1.87-7.27,4.97v1.8h0ZM81.86,46.01v-2.45l.07.14c0,.22.07.5.07.79,1.58-.22,2.95-.58,4.25-1.01.36-.22.58-.07.58.36s-.14.86-.43,1.3c-.58.79-1.15,1.15-1.87,1.08-1.08-.14-2.02-.22-2.66-.22h0ZM81.86,41.4v-1.87c.29-.22.5-.22.58-.22.22.14.36.36.36.79,0,.36-.07.65-.14.79-.14.22-.43.36-.79.5ZM81.86,39.53v1.87h-.07c-.58.22-1.3.65-2.09,1.15v-3.46c.07,0,.14.07.14.14.07.07.07.14.14.22,0,.07.14.36.43,1.01v.07c.65-.5,1.08-.86,1.44-1.01h0ZM81.86,43.56c-.07-.29-.14-.65-.22-1.01-.07-.22-.22-.29-.43-.36-.5.07-.79.14-.94.36-.14.07-.14.22-.07.36.14.29.29.5.36.79.07.22.14.43.14.72,0,.07-.07.14,0,.22-.36,0-.58.07-.86.14h-.14v1.37c.22-.07.36-.07.58-.14-.14.29-.36.65-.58.94v2.66c.07,0,.14-.07.22-.14,1.01-1.44,1.66-2.52,1.94-3.46h0v-2.45h0ZM81.86,48.74v1.8c-.07.07-.22.14-.29.22,0,.14.14.43.29.65v2.38c-.07-.07-.14-.22-.29-.29-.72.43-1.3.86-1.73,1.22.14.14.22.36.36.5.29.72.29,1.44-.14,2.23-.14.22-.22.36-.36.5v-4.82c.36-.22.72-.5,1.08-.72-.22-.29-.36-.5-.5-.65,0-.07-.07-.07-.07-.07-.14.07-.36.22-.5.36v-1.87l.5-.29,1.66-1.15h0ZM81.86,56.59l-.79.58c-.79.5-1.22.94-1.3,1.37-.07.36.07.65.36.79.36.22.86,0,1.44-.58.07-.14.22-.22.29-.29v-1.87h0ZM81.86,59.54v1.94c-.22.29-.43.5-.65.72-.65.65-1.15,1.01-1.51,1.08h0v-2.38c.29,0,.65-.22,1.15-.58.36-.29.72-.58,1.01-.79ZM79.7,39.1v3.46c-.14.07-.29.22-.5.36-.65.5-1.08,1.01-1.44,1.44-.07.22-.22.36-.43.5v-1.94c.14-.07.22-.14.36-.29s.72-.58,1.51-1.15c-.14-.29-.22-.5-.36-.65-.29-.29-.58-.36-.94-.29-.07.07-.29.22-.58.43v-1.58c.79-.5,1.3-.72,1.51-.72.36.07.65.22.86.43h0ZM79.7,44.78c-.29.07-.58.07-.94.07-.58,0-1.08.22-1.44.58v1.51c.22.14.5.07.86-.14.36-.29.86-.5,1.51-.65v-1.37h0ZM79.7,46.94v2.66c-.14.14-.43.22-.72.22-.86-.14-1.37-.29-1.44-.58,0-.14.07-.36.36-.58.79-.58,1.37-1.15,1.8-1.73h0ZM79.7,50.18v1.87c-.36.22-.72.5-1.08.79.22.14.43.43.58.72.14-.14.36-.29.5-.43v4.82c-.29.29-.58.5-.86.58-.22.07-.43,0-.65-.14s-.36-.29-.36-.5c0,0,.29-.43.79-1.15.29-.5.29-.86.14-1.15-.65.43-1.08.86-1.44,1.15v-1.8c.22-.14.5-.36.72-.5-.22-.22-.36-.5-.58-.72l-.14.14v-2.02c.72-.5,1.51-1.08,2.38-1.66h0ZM79.7,60.91h-.07c-.22,0-.58-.36-1.3-1.08-.43-.5-.72-.94-1.01-1.3v2.74l.86,1.08c.43.58.94.94,1.51.94v-2.38h0ZM77.33,51.41h0c.43-.43.5-.94.22-1.44-.07-.14-.14-.22-.22-.29v1.73ZM77.33,39.38v1.58l-.29.22c-.72.72-1.15,1.08-1.22,1.15.14.07.22.22.22.29.43.29.79.43.94.36.14,0,.29,0,.36-.07v1.94c-.14.07-.29.07-.43.07-.29.07-.5-.07-.79-.36-.14-.07-.29-.22-.43-.43-1.08-1.3-1.66-2.02-1.58-2.23,0-.22.07-.36.22-.5.22-.14.43-.14.65-.14.22-.43.58-.72,1.01-.94.07,0,.22-.07.36-.22.36-.29.72-.5,1.01-.72h0ZM77.33,45.43v1.51l-.29-.29c-.14-.29-.14-.65.14-1.01,0-.07.07-.14.14-.22h0ZM77.33,49.68c-.07-.14-.14-.22-.29-.22s-.5.14-.86.43c-.07-.14-.14-.29-.36-.43-.36-.14-.65-.29-.86-.5-.07-.14-.22-.22-.43-.29-.14,0-.36.07-.65.22-.22.14-.36.29-.36.43-.07.22-.07.36,0,.5.14.22.65.29,1.66.29.14,0,.36.07.58.07-2.02,1.51-3.38,2.66-4.25,3.46-.36.36-.72.29-.94-.14-1.37-1.94-2.3-3.31-2.74-4.03-.14-.36-.36-.65-.5-.86.22-.29.58-.65,1.08-1.01,0,.07.07.22.14.36.29.22.43.5.5.94-.07.58,0,.86.22.94.14.07.29,0,.43-.22s.29-.5.36-.94c.36-.22.65-.43.94-.72.14.22.29.43.43.72,0,0,.07.07.07.14-.58.36-1.08.72-1.66,1.01-.36.22-.5.58-.58,1.08,0,.43.14.72.43.79.29.14.58-.07.94-.5.29-.36.65-.72,1.08-1.08l.07-.07c0,.5-.07.86-.14,1.22-.58.86-.65,1.44-.22,1.73.14.07.36.14.58.07.43-.14.72-.65,1.01-1.51.14-.72.14-1.51-.14-2.38.58-.43,1.08-.79,1.66-1.22.36-.22.58-.5.58-.79s-.14-.43-.36-.5-.94.36-2.3,1.44c-.22-.22-.36-.58-.43-.94.22-.22.58-.43.86-.65.43-.29.65-.58.58-.79-.14-.22-.29-.36-.43-.36-.22,0-1.15.5-2.81,1.58-.22.14-.36.22-.43.36-.29-.14-.58-.22-.79-.22.14-.14,1.22-.94,3.17-2.23.5-.36.72-.72.65-1.01s-.22-.5-.5-.5c-.36-.07-.94.22-1.73.79-1.08.79-2.3,1.58-3.53,2.52-.79.5-1.3,1.01-1.37,1.44l-.07.07c-.22.14-.36.36-.29.65,0,.29.36.72,1.08,1.3,0,.07.07.14.14.22,2.16,2.88,3.31,4.46,3.38,4.82,0,.29.07.65.36.94.22.22.43.36.72.29.22,0,.43-.14.58-.43,1.01-1.87,2.3-3.1,3.89-3.67.07-.07.14-.07.22-.07.79-.14,1.3-.36,1.66-.79v-1.73h0ZM77.33,51.84v2.02c-2.3,1.73-4.18,3.46-5.76,5.18-.58.72-1.15.94-1.58.79-.43-.22-.58-.65-.43-1.37.07-.22.14-.5.29-.65.36-.72,2.88-2.74,7.49-5.98h0ZM77.33,54.94v1.8c-.36.36-.58.58-.58.72,0,.22.22.5.58,1.08v2.74c-.58-.65-1.08-1.37-1.66-2.09-.72-.79-1.01-1.44-.94-1.94.07-.29.29-.58.72-.86.58-.43,1.22-.94,1.87-1.44h0ZM62.78,78.48v-2.23c2.52-2.02,4.18-4.39,5.04-7.27.07-.58.22-.86.43-.79.22,0,.36.29.43.72.43,1.87.36,3.53-.14,4.97-.43,1.3-2.38,2.88-5.76,4.61h0ZM62.78,73.37c.22.65.43,1.01.58,1.15s.29.07.36-.22c.14-.14.22-.65.22-1.58,0-.43.07-.72.14-1.01.07-.58-.14-1.01-.5-1.22-.22-.22-.5-.22-.79-.22v3.1ZM62.78,70.27v3.1c-.07-.14-.14-.29-.22-.5-.58-.65-.86-1.08-1.01-1.22-.29-.43-.07-.86.5-1.15.29-.07.5-.14.72-.22h0ZM62.78,76.25v2.23c-.94.43-2.02.94-3.17,1.44v-1.66c1.15-.58,2.23-1.3,3.17-2.02h0ZM59.62,76.46c.22.5.36.79.5.86.14.14.22.07.36-.22.07-.07.14-.43.22-1.08.07-.36.14-.65.14-.79.07-.58-.07-.94-.43-1.22-.22-.14-.5-.14-.79-.14v2.59h0ZM59.62,71.57v-.65c.07.14.07.43,0,.65ZM59.62,70.92v.65c-.07.22-.14.43-.29.72-.22.36-.43.72-.58,1.08-1.08,1.58-1.94,2.81-2.66,3.74v-2.52c.5-.72,1.01-1.37,1.44-2.02.14-.22.22-.36.22-.43-.22-.14-.43-.14-.79,0-.36.22-.65.29-.86.43v-3.6c.22-.29.29-.43.36-.58,0-.14-.14-.36-.36-.72v-3.31c.07.07.07.14.14.22.36.86.79,1.66,1.37,2.38.5.94.72,1.58.65,2.02-.07.36-.36.72-.79,1.08-.36.22-.72.5-1.01.86.58-.22,1.15-.43,1.8-.65.5-.14.94,0,1.22.29.07.14.07.22.14.36h0ZM59.62,73.87l-.65.22c-.65.29-.79.72-.5,1.15.07.07.36.29.86.58.07.29.22.5.29.65v-2.59h0ZM59.62,78.26v1.66l-.29.14c-1.66.65-2.52,1.37-2.74,2.23,0,.36,0,.94.14,1.8.07.58,0,.86-.22.94-.14,0-.29-.07-.43-.22v-5.33c.72-.07,1.58-.29,2.59-.79.14,0,.29-.07.43-.14s.36-.14.5-.29ZM56.09,64.37v3.31c-.07-.07-.07-.14-.14-.29-.36.29-.72.79-1.22,1.37v-2.09c.07-.22.22-.36.29-.43-.14-.07-.22-.14-.29-.22v-2.16c.22-.07.43-.14.65-.14.29.07.5.29.72.65h0ZM56.09,68.98v3.6c-.58.22-1.01.36-1.15.22-.07,0-.14-.07-.14-.07l-.07.07v-2.16c.29-.43.65-.79,1.01-1.15.14-.22.29-.36.36-.5h0ZM56.09,74.59v2.52c-.58.72-1.08,1.3-1.37,1.51v-2.3c.07-.07.14-.22.29-.36.36-.43.72-.94,1.08-1.37h0ZM56.09,79.49v5.33c-.14-.07-.22-.29-.36-.58-.22-.58-.5-1.22-.72-1.87-.07-.29-.22-.58-.29-.86v-1.73c.22-.22.65-.29,1.15-.29h.22ZM54.72,63.86v2.16c-.14-.07-.29-.07-.5,0-.36.14-1.37,1.3-3.1,3.38.36.29.65.5.94.72,1.3-1.66,2.16-2.81,2.66-3.46v2.09c-.5.58-1.08,1.22-1.73,2.09.07,0,.07.07.14.07.29.22.58.5.79.72.22-.36.5-.72.79-1.01v2.16c-.07.07-.14.14-.14.22,0,.29-.07,1.15-.29,2.74,0,.36,0,.58.14.65.07,0,.14,0,.29-.07v2.3c-.07.07-.14.07-.14.14-.43.22-.72.29-1.01.22-.22,0-.36-.22-.5-.5-.14-.43-.22-1.51-.07-3.38-.58.94-1.01,1.66-1.08,2.16-.14.5-.36.72-.65.79h-.22v-2.74l1.8-2.38c-.29-.14-.58-.36-.94-.65l-.86,1.08v-6.12c1.51-1.94,2.74-3.02,3.67-3.38h0ZM54.72,79.78v1.73c-.29-.79-.36-1.37-.22-1.58.07-.07.14-.14.22-.14h0ZM51.05,94.61v-2.3c.07.07.07.14.07.29.22.58.22,1.15,0,1.8,0,.07-.07.14-.07.22h0ZM51.05,65.66c.5-.58.94-1.01,1.37-1.44.5-.5.86-.94.94-1.37,0-.72-.07-1.22-.29-1.51-.22-.22-.5,0-1.01.58l-1.01,1.3v2.45h0ZM54,86.76c-.14-1.15-.29-2.16-.29-3.02,0-.5-.14-.79-.36-1.01-.14-.14-.5-.14-.94-.07-.58.07-.94.29-1.01.65-.07.22.5,1.44,1.58,3.74.29.43.5.65.79.58.22-.07.29-.36.22-.86ZM51.05,63.22v2.45c-.58.58-1.08,1.3-1.73,2.09.22.22.43.5.72.72.36-.43.72-.86,1.01-1.22v6.12c-.94,1.15-1.51,2.02-1.8,2.52v-2.23c.5-.65,1.08-1.37,1.73-2.23l-.86-.65c-.29.43-.58.79-.86,1.15v-6.48c.58-.72,1.22-1.44,1.8-2.23h0ZM51.05,75.31l-.65.86c-.07.07-.5,0-1.15-.22v1.66l.36.14c.58.22,1.08.29,1.44.29v-2.74h0ZM51.05,92.3v2.3c-.36,1.01-1.01,1.58-1.8,1.73v-3.24c.36-.22.72-.5,1.08-.72.36-.29.58-.29.72-.07ZM49.25,65.45v6.48c-1.3,1.66-1.87,2.59-1.73,2.95.07.14.14.22.29.36q0-.07.07-.14c.36-.29.79-.79,1.37-1.44v2.23l-.07.07h.07v1.66c-1.66-.72-2.66-1.08-2.95-1.15-.58-.14-.94-.36-1.08-.65-.14-.72,1.08-2.66,3.74-5.9-.29-.22-.58-.36-.86-.58-1.44,1.94-2.45,3.53-2.88,4.68-.5,1.08-.94,1.58-1.3,1.58-.43,0-.72-.22-.94-.65-.14-.36-.14-.79-.07-1.22.07-.22,1.37-1.94,3.96-5.26-.43-.36-.5-.72-.29-1.08.22-.5.58-.72,1.15-.65.14,0,.29.07.43.07.36-.43.72-.86,1.08-1.37h0ZM49.25,93.1v3.24h-.07c-1.44.22-2.59.43-3.53.58.58,1.37.79,2.45.86,3.17.14,1.94-.07,3.17-.65,3.6-.29.14-.58.22-.86.14-.72-.29-.94-1.15-.65-2.59.22-1.22.07-2.45-.43-3.82-.72.22-1.3.5-1.8.86v-1.73c.22-.07.36-.14.5-.29.22-.07.36-.14.5-.22-.29-.36-.65-.72-1.01-1.01v-1.94c.22.14.43.36.72.5.72.43,1.3,1.01,1.73,1.58.07.07.07.14.14.22,1.66-.65,3.17-1.37,4.54-2.3h0ZM42.12,108.36c.36.65.5,1.15.58,1.51.07.43.22.79.36,1.01.22.14.5.14.94-.07.22-.07.43-.36.58-.65.22-.86-.22-2.16-1.3-3.82-.14-.07-.22-.22-.36-.43.65-.79.94-1.22,1.01-1.37.22-.5.07-.86-.22-1.01-.29-.22-.65-.29-1.01-.14-.22,0-.36.07-.58.22v4.75ZM42.12,93.1v1.94c-.36-.29-.79-.5-1.3-.72-.36-.14-.58-.29-.72-.43v-.72c0-.14.07-.22.14-.36.14-.22.36-.36.65-.43.29,0,.58.14.86.43.14.07.22.22.36.29h0ZM42.12,96.55v1.73c-.36.22-.65.5-.86.79-.36.43-.79.58-1.15.36v-1.94c.29-.36.65-.58,1.22-.72.29-.07.58-.14.79-.22h0ZM42.12,103.61v4.75c-.07-.22-.22-.43-.29-.65q-.07-.07-.07-.14c-.65,1.01-1.22,2.16-1.66,3.6v-4.32c.14-.29.29-.58.43-.79-.14-.22-.29-.36-.43-.5v-2.23l1.37,1.08v-.07c.22-.29.43-.58.65-.72h0ZM40.1,91.08v-.86.22c.07.22.07.43,0,.65ZM40.1,90.22v.86c-.14.36-.36.65-.65.94-.22.14-.5.43-.72.72-.29.43-.5.86-.72,1.22v-3.82c.14-.29.29-.5.43-.79.14-.5.5-.58.94-.22.36.29.58.65.72,1.08h0ZM40.1,93.17c-.07.22-.07.36-.07.58,0,.07,0,.14.07.14v-.72h0ZM40.1,97.49v1.94l-.14-.14c-.29-.29-.36-.65-.22-1.15.07-.22.22-.43.36-.65h0ZM40.1,103.32v2.23c-.58-.58-1.3-1.15-2.09-1.87v-3.67c.22-.43.43-.58.65-.43.29.22.5.65.58,1.37,0,.43-.07.86-.43,1.37.14.07.58.43,1.3,1.01h0ZM40.1,106.85v4.32c-.07.29-.22.58-.29.86-.29,1.01-.65,1.51-1.15,1.58-.14,0-.36-.07-.65-.22v-2.23c.14-.07.36-.36.58-.86.43-1.15.94-2.3,1.51-3.46h0ZM38.02,108.36c.07.07.22.14.36.22.36.14.58.14.72-.07.14-.14,0-.43-.29-.72-.22-.29-.36-.5-.43-.79-.14-.14-.22-.29-.36-.36v1.73ZM38.02,90.14v3.82c-.58,1.01-.86,1.87-.86,2.59,0,.43-.07.72-.22.86.43.79.72,1.44.72,1.87,0,.36-.07.65-.36.72-.14.07-.36-.07-.65-.36v-6.7c.43-.86.86-1.8,1.37-2.81h0ZM38.02,100.01c-.07.07-.14.22-.22.36-.14.29-.29.65-.43.94-.22-.22-.5-.36-.72-.5v2.02h0v3.6c.5-1.08.94-1.94,1.37-2.74h0v-3.67h0ZM38.02,106.63v1.73c-.29-.14-.5-.22-.65-.22-.36-.14-.58-.29-.72-.65h0v-.36l.22-.43c.22-.22.5-.29.94-.22.07.07.14.07.22.14h0ZM38.02,111.17v2.23c-.36-.14-.79-.43-1.37-.86v-2.09c.72.5,1.15.79,1.3.72h.07ZM36.65,92.95v6.7c-.14-.14-.29-.36-.43-.58l-.14-.22v-4.61c.22-.43.36-.86.58-1.3h0ZM36.65,100.8v2.02c-.22-.14-.36-.22-.58-.36v-2.02c.14.07.36.22.58.36h0ZM36.65,102.82v3.6c-.07.22-.22.43-.29.65s-.22.43-.29.65v-3.67c.22-.43.36-.79.58-1.22h0ZM36.65,107.14v.36-.36h0ZM36.65,110.45v2.09c-.14-.14-.36-.29-.58-.5v-2.09c.14.14.29.22.36.29l.22.22ZM36.07,94.25v4.61c-.58-.94-1.15-1.73-1.8-2.3v-2.74c.29.43.72.94,1.22,1.51,0-.07.07-.07.07-.14.22-.29.36-.58.43-.79l.07-.14h0ZM36.07,100.44v2.02c-.86-.43-1.44-.65-1.8-.72v-2.52c.22.07.43.22.58.36.29.29.65.58,1.08.72l.14.14h0ZM36.07,104.04v3.67c-.22.65-.43,1.22-.58,1.73.14.22.36.36.58.5v2.09c-.29-.22-.65-.58-1.08-.86v.14c-.22,1.01-.43,1.58-.72,1.8v-5.18c.29-.72.58-1.37.94-2.02-.14,0-.29-.07-.43-.14-.22-.07-.36-.14-.5-.22v-1.8c.07.14.22.22.29.36.14.36.29.65.58.86.14.14.22.29.29.43.22-.43.43-.94.65-1.37ZM31.32,99.36c.22-.43.36-.79.29-1.15-.07-.14-.14-.36-.29-.58v1.73h0ZM34.27,93.82v2.74c-.79-.79-1.66-1.3-2.59-1.58-.14-.07-.29-.14-.36-.22v-1.15c.14-.14.36-.29.58-.36.5-.22.94-.29,1.3-.22s.65.22.79.43c.07.14.14.22.29.36h0ZM34.27,99.22v2.52h-.22c-.36.07-.72.29-1.08.79-.07,0-.14.07-.14.14-.79,1.66-1.08,2.81-.94,3.31,0,.36.43.86,1.22,1.44.36.29.65.58.94.86.07-.07.07-.14.07-.22l.14-.14v5.18c-.07,0-.14.07-.14.07-.43.07-.79-.07-1.08-.43-.29-.5-.36-1.01-.29-1.66.14-.5.29-.94.5-1.37-.65-.58-1.3-1.08-1.94-1.58v-5.47c.29-.72.58-1.37.94-2.09.43-.79.86-1.22,1.3-1.3.29-.07.5-.07.72-.07h0ZM34.27,103.75c-.14-.07-.29-.14-.5-.14-.36-.14-.65-.07-.86.22s-.29.58-.14.79c.14.36.43.58.79.65.14.07.36.14.72.29v-1.8ZM30.67,100.22c.14-.29.36-.5.5-.65,0-.07.07-.14.14-.22v-1.73l-.29-.29c-.14-.07-.22-.14-.36-.14v3.02h0ZM31.32,93.6v1.15c-.22-.14-.36-.36-.29-.65,0-.14.14-.36.29-.5h0ZM31.32,102.67v5.47l-.22-.14c-.14-.07-.29-.22-.43-.36v-3.6c.22-.43.43-.94.65-1.37ZM28.22,105.62c.07-.07.07-.14.14-.29.22-.86.65-1.94,1.3-3.17.36-.79.72-1.44,1.01-1.94v-3.02c-.14,0-.22,0-.36.07-.29.22-1.01,1.73-2.3,4.46-.43,1.08-.79,1.8-1.01,2.16,0,.07-.07.14-.07.14-.29-.29-.72-.5-1.08-.5-.43,0-.65.14-.79.36-.14.29,0,.5.36.72.79.79,1.3,1.87,1.58,3.46.14.79.43,1.3.79,1.44.36.22.72.07,1.01-.36.29-.36.29-1.08.07-2.16-.14-.36-.29-.79-.58-1.3l-.07-.07h0ZM30.67,104.04v3.6c-.58-.43-.86-.79-.94-1.01,0-.36.22-1.01.65-2.02l.29-.58Z"/>
    <path class="cls-5" d="M206.57,41.33v-2.74c.14.07.22.14.36.22.22.22.29.5.14.94,1.58.65,2.81,1.15,3.67,1.51,1.37.58,2.38,1.01,2.95,1.22.58.14.65.43.22.79-1.15.86-2.09,1.22-2.81,1.15-.07-.07-.65-.5-1.87-1.37-1.22-1.01-2.09-1.58-2.66-1.73h0ZM206.57,37.94v-3.74l.43.22c.65.29,1.01.43,1.15.36.07,0,.29-.14.58-.43-.36-.29-1.08-.58-2.16-1.01v-1.44c1.58.58,2.59.94,3.02,1.01.07,0,.14.07.22.07.07-.22.07-.43-.07-.58-.14-.29-1.22-.79-3.17-1.51v-1.44c3.53,1.22,5.4,2.3,5.54,3.31.07.29-.14.58-.58,1.01-.72.5-1.37,1.22-1.87,1.94-.5.58-1.01.86-1.51.86-.36,0-.79-.07-1.22-.36,0-.07-.07-.07-.14-.07.07.14.14.29.22.5.22.43.14.79-.14,1.08-.07.14-.14.14-.29.22h0ZM206.57,28.3c1.8.65,3.24,1.3,4.39,1.94.65.36,1.22.5,1.66.43.79-.14,1.22-.43,1.44-.72.14-.22-.14-.5-.94-.79-2.02-.79-4.03-1.58-6.05-2.3.07-.36,0-.65-.07-.94-.07-.22-.22-.36-.43-.36v2.74ZM206.57,25.56v2.74h-.07c-.07.29-.22.58-.36.94l.43.22v1.44c-.29-.14-.58-.22-.94-.36-.14.36-.22.65-.36.94.5.14.94.29,1.3.43v1.44c-.5-.22-1.08-.43-1.73-.72l-.07.14v-5.11h0v-1.66c.22.07.36.14.58.22.14-.36.36-.58.58-.65.29-.07.5-.07.65,0h0ZM206.57,34.2v3.74c-.29.14-.72.14-1.3,0-.22-.07-.36-.07-.5-.14v-1.44c.14,0,.22,0,.22-.07.07-.07.14-.22.07-.43-.07-.29-.22-.58-.29-.86v-1.51c.65.29,1.22.5,1.8.72h0ZM206.57,38.59v2.74c-.07-.07-.22-.07-.29-.07-.22.36-.36.94-.58,1.66-.43.65-.72,1.15-.94,1.44v-5.54c.14.07.22.14.36.14.22-.43.5-.58.86-.58.22.07.43.14.58.22ZM204.77,25.99v1.66c-.65-.22-1.22-.43-1.8-.58v-1.73h.07l1.73.65h0ZM204.77,27.79v4.97c-.14.29-.22.43-.29.65l.29.07v1.44c-.86-.43-1.44-.65-1.8-.79v-1.87c.07-.07.07-.14.14-.22l-.14-.07v-1.37l.58.22c.14-.29.29-.58.36-.86-.29-.14-.65-.29-.94-.36v-1.51c.5.14.94.36,1.44.58l.36-.86h0ZM204.77,36.36v1.44c-.22,0-.43-.07-.58-.14-.43-.07-.79-.22-1.22-.36v-1.51c.58.14,1.08.36,1.58.5.07,0,.14,0,.22.07h0ZM204.77,38.81v5.54c-.07.07-.14.22-.22.29-.43.36-.94.72-1.58.86v-1.8c.22-.07.36-.22.43-.43.22-.22.65-1.15,1.3-2.74-.58-.29-1.15-.5-1.73-.72v-1.73c.72.29,1.3.5,1.8.72ZM202.97,25.34v1.73c-1.44-.43-2.59-.65-3.53-.72-.36,0-.65-.07-.86-.14v-2.09c.07-.07.22-.07.29-.07.29-.07,1.66.36,4.1,1.3h0ZM202.97,28.08c-2.16-.72-3.6-1.15-4.39-1.22v6.26h0c.43,0,1.01.07,1.66.22-.79.22-1.37.43-1.66.65h0v1.37l.07.07c.43.36,1.87,1.01,4.32,1.87v-1.51c-.5-.22-1.08-.43-1.66-.65-.22-.14-.36-.22-.36-.29s.07-.14.22-.22c.29-.07.58-.22.94-.29.22-.07.43-.14.58-.22h.29v-1.87c-.07.22-.14.43-.14.58-.86-.36-1.87-.65-2.81-.94-.5-.14-.79-.29-.86-.36-.07-.14-.14-.36-.14-.72v-.14c.72.14,2.09.58,3.96,1.3v-1.37c-1.8-.65-2.95-1.22-3.6-1.58h-.14c.07-.14.14-.22.29-.29.29-.22,1.44.07,3.46.86v-1.51h0ZM202.97,38.09v1.73c-1.44-.65-2.95-1.15-4.39-1.66v-1.73c1.73.65,3.24,1.15,4.39,1.66h0ZM202.97,43.7v1.8c-.5.22-1.15.29-1.87.22-.79-.07-1.66-.29-2.52-.58v-2.38c1.8,1.08,3.17,1.44,4.1,1.15.07-.07.22-.07.29-.22h0ZM198.58,41.33c.07.07.22.07.36.07.79.29,1.37.29,1.73.07.29-.14.36-.36.36-.5-.14-.36-.58-.58-1.22-.79-.58-.22-1.01-.58-1.22-.94v2.09ZM198.58,24.12v2.09c-.65-.14-1.08-.36-1.15-.65-.14-.43,0-.79.36-1.15.29-.14.5-.29.79-.29h0ZM198.58,26.86v6.26c-.43.07-.72-.07-.86-.36-.22-.29-.29-.79-.22-1.51.14-1.8.14-2.88.14-3.17,0-.5.07-.94.36-1.08.14-.07.29-.14.58-.14h0ZM198.58,33.98v1.37c-.29-.29-.43-.58-.43-.79s.14-.43.43-.58h0ZM198.58,36.43c-1.15-.43-2.45-.86-3.82-1.37-1.73-.58-2.88-.86-3.46-.79-.14,0-.36.07-.58.14-.72.22-1.01.65-.94,1.15.14.5.65.79,1.58.94,2.38.29,4.75.86,7.2,1.66v-1.73h0ZM198.58,39.24v2.09c-.79-.22-1.37-.36-1.66-.58-.5-.36-.79-.79-.79-1.3s.29-.86.72-1.01c.72-.29,1.22-.07,1.58.5,0,.07.07.14.14.29h0ZM198.58,42.77v2.38c-.43-.14-.79-.29-1.22-.5-.43-.14-.72-.43-.86-.72s-.29-.72-.22-1.15c0-.5.14-.79.5-.94.36,0,.72.14,1.01.43.29.14.5.36.79.5h0ZM178.92,37.01v-1.94c3.17.5,4.97.79,5.33.86.65.07.72.36.36.79-.5.58-1.08,1.08-1.66,1.44-.5.29-1.08.22-1.66-.14-.79-.43-1.58-.79-2.38-1.01h0ZM178.92,31.9v-1.66c1.37.22,2.16.43,2.3.65.22.22.22.5,0,.86-.14.29-.58.36-1.37.29-.29-.07-.58-.14-.94-.14h0ZM178.92,28.22v-1.87c.5.07.79.07.94,0,.22-.07.5-.72.86-1.8-.36-.07-.94-.22-1.8-.36v-1.58c1.08.07,1.8.14,2.23.22.14-.36.22-.72.29-1.08.14-.29.07-.58-.14-.79-.36-.29-1.15-.43-2.38-.58v-1.51c.29,0,.58.07.94.14,2.38.36,3.74.94,4.03,1.8.14.29.07.72-.36,1.15-.65,1.22-1.3,2.81-1.8,4.75-.43.86-.86,1.37-1.37,1.51-.43.14-.86.14-1.44,0ZM178.92,18.86v1.51h-.58v.22c-.22.43-.36,1.08-.5,1.87l1.08.14v1.58c-.36-.07-.86-.14-1.37-.22-.14.65-.22,1.3-.36,2.09.5.07.94.14,1.3.22.22,0,.36.07.43.07v1.87l-.07-.07c-.5-.22-1.15-.43-1.87-.58-.14.86-.29,1.58-.36,2.3.94.14,1.66.22,2.3.36v1.66c-.86-.14-1.73-.29-2.52-.36-.22,1.58-.29,2.59-.29,3.02l2.81.5v1.94c-.22-.07-.43-.14-.58-.14-1.44-.36-2.81-.58-4.18-.79v-2.59c.14-.5.29-1.22.5-2.16-.22-.07-.36-.07-.5-.07v-1.73c.22,0,.5.07.72.14.14-.72.29-1.44.43-2.3-.43,0-.79-.07-1.15-.07v-1.58c.5.07.94.07,1.37.14.07-.72.22-1.44.29-2.02-.65-.07-1.22-.14-1.66-.22v-1.66c.5.07,1.08.14,1.8.29.14-.86.14-1.51.14-1.87v-.29c-.79-.14-1.44-.14-1.94-.14v-1.66c1.22.07,2.81.29,4.75.58ZM174.17,18.29v1.66c-.72-.07-1.15,0-1.22.14-.22.14-.29.65-.36,1.51.14,0,.22,0,.36.07.29.07.65.14,1.22.29v1.66c-.94-.07-1.44-.14-1.66-.14,0,1.15.07,1.87.36,2.09.07.07.43.07,1.01.14h.29v1.58c-.65,0-1.15,0-1.51.07-.43.22-.79.14-1.08-.14-.22-.29-.43-.79-.58-1.58,0-3.24-.07-5.18-.22-5.83-.22-.58-.14-1.01.07-1.3.36-.29,1.44-.36,3.31-.22h0ZM174.17,29.52v1.73c-1.01-.14-1.87-.14-2.59-.14-1.01,0-1.66-.22-1.8-.65s0-.79.36-1.08c.43-.29,1.8-.22,4.03.14h0ZM174.17,33.48v2.59c-2.3-.29-4.39-.36-6.48-.22v-2.16c.58-.07,1.3-.07,2.09,0,1.44.22,2.81.36,4.1.58.07-.07.07-.14.14-.22,0-.14.07-.36.14-.58h0ZM167.69,31.46v-1.15c.29.07.43.22.5.29.14.36,0,.58-.29.79-.07,0-.14.07-.22.07h0ZM167.69,26.57v-1.58c.43.07.72.22.86.36.14.22.14.5,0,.86-.14.22-.43.29-.86.36h0ZM167.69,21.6v-1.73c1.22.29,1.87.43,1.94.65.14.36.14.65-.14.94s-.79.36-1.51.22c-.07-.07-.14-.07-.29-.07ZM167.69,19.87v1.73c-.29-.07-.65-.07-1.01-.14-.22.58-.36,1.66-.58,3.17.65.07,1.22.22,1.58.36v1.58c-.14,0-.29-.07-.5-.07-.5-.07-.94-.14-1.3-.14-.29,1.87-.43,3.1-.43,3.67.58,0,1.15.14,1.73.22.22,0,.36.07.5.07v1.15c-.5.22-1.15.29-1.87.22-1.08-.07-2.81.07-5.18.43-.72.14-1.15,0-1.44-.43-.22-.43.07-.86.86-1.37.86-.5,1.94-.65,3.31-.5.22-.43.43-1.66.72-3.67-.58-.07-1.01-.07-1.44-.07-1.08.07-1.66-.14-1.8-.65-.14-.43,0-.79.36-1.08.58-.36,1.58-.36,3.1.07.22-1.66.29-2.66.29-3.1v-.14c-.22-.07-.79-.07-1.73,0-.86,0-1.44-.14-1.58-.5s0-.72.43-1.15c.58-.5,1.22-.65,1.73-.5.79.22,1.87.5,3.24.72.36.07.72.14,1.01.14h0ZM167.69,33.7v2.16h-.29c-.94.07-1.44-.14-1.66-.58s0-.86.58-1.22c.36-.22.79-.36,1.37-.36h0ZM143.78,36.36v-1.58c.5-.07.86-.14.94-.22.07-.14.07-.43,0-.94-.07-.29-.14-.5-.29-.58-.07-.07-.29-.07-.65-.07v-1.44c1.15-.07,1.87,0,2.16.07.36.22.58.72.58,1.37.07,1.51,0,2.38-.22,2.74-.36.43-1.15.65-2.23.65h-.29ZM143.78,30.24v-4.32c.79,0,1.3.07,1.51.22.29.29.43.65.36,1.01s-.07.72,0,1.08c0,1.22-.58,1.87-1.73,2.02h-.14ZM143.78,24.19c.22-.07.5-.07.72-.07,1.73-.14,2.74-.07,3.1.14.36.14.65.72.86,1.58.5,1.8,1.01,2.66,1.58,2.52.22-.07.36-.22.58-.5.29-.65.22-1.37-.14-2.23-.07-.29-.14-.58-.22-.94-.07-.43-.14-.79-.36-1.08-.22-.36-.65-.72-1.3-.94-.86-.29-1.8-.36-2.88-.22-.58,0-1.22.07-1.94.14v1.58h0ZM143.78,21.82v-2.59c.29,0,.58.07.79.43.22.14.22.36.14.65-.07.22-.14.5-.14.72.07.65-.07.94-.22.94-.22.07-.43,0-.58-.14h0ZM143.78,18.36c.07,0,.22.07.29.14.58.22,1.08.43,1.51.65.5.36.94.58,1.37.72.36.14.79.07,1.37-.14.43-.22.79-.58.94-1.01.29-.65.07-.94-.65-.94-.79.07-2.09-.14-3.67-.43-.43-.07-.79-.29-1.01-.58-.07-.14-.14-.22-.14-.29v1.87ZM143.78,16.49v1.87c-.29-.07-.58.07-.86.29-.79.86-1.51,1.44-2.09,1.73-.14.07-.29.14-.36.22v-2.02c.22-.14.43-.36.72-.58.58-.43.86-.79,1.01-1.08.14-.72.36-1.08.72-1.08.29,0,.58.22.86.65h0ZM143.78,19.22h-.22c-.43.07-.72.29-.79.65-.07.29,0,.58.22.79.14.14.36.43.58.86.07.14.14.22.22.29v-2.59h0ZM143.78,22.61v1.58c-.94.07-2.09.14-3.31.29v-1.51c1.22-.14,2.3-.29,3.31-.36h0ZM143.78,25.92v4.32c-1.3.07-2.38.14-3.31.29v-1.37c1.8-.22,2.88-.43,3.1-.65.07-.07.07-.29.07-.58-.07-.29-.07-.5-.14-.58-.29-.22-1.3-.22-3.02,0v-1.22c1.37-.14,2.52-.22,3.31-.22h0ZM143.78,31.54v1.44c-.72,0-1.8.07-3.31.29h0v-1.37c1.3-.14,2.45-.29,3.31-.36h0ZM143.78,34.78v1.58c-1.22,0-2.3.14-3.31.36v-1.51c1.01-.14,1.94-.29,2.81-.36.14,0,.36-.07.5-.07ZM140.47,18.58v2.02c-.43.14-.79.22-1.01.07-.36-.14-.58-.43-.58-.79.07-.36.22-.65.5-.72.22-.07.58-.29,1.08-.58h0ZM140.47,22.97v1.51c-.72.07-1.44.22-2.23.29-1.58.22-2.95.43-4.03.65v-1.66c1.08-.14,2.23-.29,3.46-.43,0-.07-.07-.14-.07-.14-.29-.36-.29-.72-.14-1.01.22-.29.5-.43.86-.43.5-.07.79,0,1.01.22.14.14.22.5.22,1.01-.07.07-.07.14-.07.14.36-.07.65-.07,1.01-.14h0ZM140.47,26.14v1.22h-.36c-2.3.29-3.53.5-3.82.79-.07.07-.07.29,0,.65,0,.36.07.5.14.58.22.14,1.44.07,3.74-.14l.29-.07v1.37c-2.23.22-3.53.5-3.89.86-.07.07-.07.22,0,.36.07.43.79.58,2.16.36l1.73-.22v1.37c-2.02.29-3.1.58-3.31.79-.07.07-.14.29-.07.65.07.43.14.65.22.72.29.14.94.22,1.8,0,.5-.07.94-.14,1.37-.22v1.51c-1.08.14-2.09.43-2.95.86-.79.22-1.37.22-1.73-.07-.36-.36-.58-1.3-.58-2.74-.36-2.16-.65-4.32-.94-6.34-.07-.65,0-1.08.22-1.37.14-.29.43-.36.79-.43,1.3-.14,2.38-.22,3.1-.29.72-.14,1.44-.22,2.09-.22h0ZM134.21,22.61l.07.07c.22.36.5.43.79.36.14-.07.22-.43.14-1.01-.07-.29-.07-.58,0-.86s0-.5-.22-.72-.5-.36-.79-.36v2.52h0ZM134.21,19.3v-1.8c.58.22,1.08.36,1.66.43.79.07,1.37.22,1.73.43s.5.5.43.79c-.14.43-.58.58-1.3.43-1.01-.22-1.87-.29-2.52-.29ZM134.21,17.5v1.8c-.43,0-.79.07-1.01.22v-2.38h.07c.22,0,.43.07.72.29.07.07.14.07.22.07h0ZM134.21,20.09v2.52c-.22-.43-.5-.72-.65-.86-.22-.22-.36-.5-.29-.86,0-.36.29-.58.65-.72.14,0,.22-.07.29-.07h0ZM134.21,23.76v1.66c-.36.07-.72.14-1.01.22v-1.73c.36,0,.72-.07,1.01-.14ZM112.68,25.7h1.01c.65.07,1.08-.14,1.37-.5.43-.43.65-.94.72-1.44,0-.36-.07-.5-.43-.43-.94.22-1.87.5-2.66.79v1.58h0ZM133.2,17.14v2.38c-.07,0-.07.07-.14.14-.72.86-1.51,1.58-2.16,2.09-.58.43-1.01.65-1.22.65-.29-.07-.65-.29-1.08-.65-.29-.36-.36-.72-.22-1.01.22-.36.58-.58,1.15-.72.36-.07.79-.29,1.51-.72s1.22-1.01,1.58-1.51c.14-.43.36-.58.58-.65h0ZM133.2,23.9v1.73c-1.08.22-1.8.43-2.09.58-.65.29-.86,1.15-.65,2.74.14.79.07,1.37-.14,1.66-.22.22-.5.36-.79.36s-.58-.14-.79-.36c-.22-.29-.29-.79-.36-1.58.07-.43.14-.94.22-1.58.07-1.15.22-1.87.43-2.23.36-.5,1.3-.79,2.66-1.08l1.51-.22h0ZM112.68,43.92v-2.16c.58-.36,1.15-.86,1.58-1.37h-.07c-.5-.07-1.01-.07-1.51,0v-1.44c.86-.07,1.73-.07,2.52,0,.29-.65.43-1.15.29-1.44-.14-.36-.36-.58-.65-.5-.72.14-1.22.43-1.73.94-.14.07-.29.14-.43.29v-1.73c.29-.14.58-.22.94-.36,1.66-.65,2.66-.94,3.1-.86.36.14.5.43.43.79.07,1.22-.07,2.16-.29,2.88.65-.07,1.22-.07,1.8-.14,1.51-.07,3.02-.29,4.61-.58.43,0,.5.14.29.58-.07.22-.22.43-.29.65-1.08,1.66-2.38,2.23-4.03,1.87-1.94-.5-3.02-.79-3.17-.72-.14.14-.22.29-.36.43-.86,1.22-1.87,2.16-3.02,2.88h0ZM112.68,36.07c.58-.22,1.3-.5,2.02-.79,1.01-.43,2.16-.58,3.46-.5.65,0,1.08-.43,1.44-1.37,0-.14.07-.36.14-.5,0-.36-.14-.5-.5-.43-3.1.72-4.82,1.22-5.18,1.51-.07-.14-.14-.36-.22-.65.72-.29,1.51-.65,2.52-.94.5-.22.72-.43.72-.65,0-.29-.07-.43-.29-.58-.29-.07-1.44.29-3.46,1.01-.07-.14-.14-.29-.22-.5.72-.29,1.58-.58,2.59-.94.5-.22.72-.43.72-.65,0-.29-.07-.43-.29-.58-.29-.07-1.44.29-3.46,1.01h0v5.54h0ZM112.68,29.88v-1.37c1.44-.65,2.3-.86,2.66-.72.22.14.29.29.29.58.07.29-.22.5-.79.72-.79.29-1.51.5-2.16.79ZM110.88,26.21c.14.43.29.72.43.94.29.22.5.22.72-.07.14-.22.22-.65.14-1.22,0-.07.07-.07.14-.07s.22-.07.36-.07v-1.58c-.14.07-.22.07-.36.14v-.07c.14-.36-.07-.65-.5-.86s-.86-.14-1.15.14h-.07v2.88c.07-.07.14-.14.29-.14h0ZM112.68,28.51v1.37l-.14.07c0,.14.07.36.14.58v5.54c-.94.43-1.58.79-2.09,1.15v-1.73h.07c.58-.36,1.15-.58,1.66-.79v-.14c-.07-.14-.14-.36-.22-.58-.43.14-.79.36-1.15.58-.14.07-.29.14-.36.22v-1.58c.29-.14.65-.29,1.08-.43l-.22-.43-.86.43v-1.51c.14,0,.29-.07.43-.07-.14-.29-.22-.43-.22-.5h-.07q-.07,0-.14.07v-3.31c.14-.07.29-.07.43-.07.36.07.58.36.65.86.07.22.14.43.22.58.29-.07.5-.22.79-.29h0ZM112.68,36.5c-.43.14-.72.29-1.01.43-.43.22-.72.5-.79.94-.07.36.14.58.5.72.36.07.72-.07,1.3-.36v-1.73h0ZM112.68,38.95v1.44c-.72.07-1.37.22-2.09.43v-1.58c.72-.14,1.37-.22,2.09-.29h0ZM112.68,41.76v2.16c-.65.43-1.37.72-2.09.94v-2.02c.79-.29,1.44-.65,2.09-1.08ZM110.59,23.47c-.36.29-.43.65-.22,1.15,0,0,.07.14.14.36h-.14c-.36.07-.65.29-.72.58-.14.29-.07.58.14.79.14.22.43.22.65,0h.14v-2.88h0ZM110.59,27.43v3.31c-.36.07-.58.22-.86.43-.65.36-1.15.43-1.44.14-.22-.22-.29-.5-.14-.79.29-.5,1.01-.86,2.16-1.15,0-.14,0-.29-.07-.36-.14-.22-.29-.29-.43-.22-.29,0-.58.07-.86.22-.43.22-.72.58-.86,1.08s-.36.94-.5,1.3c.36.22.72.72.94,1.37l.65,1.94c.22.5.36.94.43,1.3.22-.14.58-.29,1.01-.5v1.73c-.36.22-.58.43-.72.65-.5.5-.94.65-1.37.43-.36-.29-.43-.72-.29-1.37-.07-.07-.43-.94-1.08-2.74-.22-.43-.43-.94-.58-1.37-.86.79-1.51,1.22-1.94,1.37-.36.07-.72-.07-1.01-.36-.72-.79-.22-1.37,1.37-1.94.43-.14.86-.58,1.44-1.22.22-.29.36-.86.58-1.73-.36-.14-.65-.36-.86-.79-.14,0-.86.43-2.09,1.3-.43.29-.79.29-1.08.07-.14,0-.14-.14-.22-.22v-.29c.07-.22.14-.43.36-.72.5-.79,1.22-1.22,2.09-1.37-.07-.07-.07-.14-.14-.14-.29-.29-.43-.58-.29-.86.29-.5.79-.72,1.51-.65.36,0,.58.22.65.58,0,.14,0,.29.07.43,1.15-.43,1.8-.58,2.02-.36s.22.36.07.65c-.29.36-.72.65-1.37.86-.14.07-.29.14-.36.22.07.14.14.29.14.36.14-.14.36-.14.65-.07.29,0,.58,0,.94-.14.65-.14,1.08-.29,1.51-.36h0ZM110.59,31.25c-.94.29-1.51.65-1.73,1.01-.14.36-.14.58.14.79.29.29.72.22,1.37-.14.07-.07.14-.07.22-.14v-1.51h0ZM110.59,33.19c-.58.22-1.01.5-1.15.79s-.07.5.14.72.58.22,1.01.07v-1.58h0ZM110.59,39.24v1.58c-.14,0-.22.07-.36.07-.72.29-1.15.29-1.3.07-.07-.29-.07-.65.22-.94.36-.36.79-.65,1.37-.79h.07ZM110.59,42.84v2.02l-.14.07c-.58.14-1.01.07-1.3-.14-.36-.36-.43-.65-.29-1.01.22-.5.72-.72,1.37-.79.07-.07.22-.14.36-.14h0ZM102.74,47.38v-1.94c.07,0,.14-.07.22-.07.5-.29,1.08-.58,1.73-.79l.29-.29c.07-.07.07-.22,0-.36-.29-1.01-.43-1.58-.43-1.58-.22-.07-.79.07-1.8.43v-1.44h.07c1.51-.43,2.3-.72,2.52-.72.36.07.65.22.86.43.14.22.22.72.29,1.51.07.58.14,1.15.29,1.66.14.65.14,1.01-.07,1.22-.36.43-.79.72-1.15.79-.86.07-1.73.43-2.59,1.01-.07.07-.14.14-.22.14h0ZM102.74,39.24c.29-.07.65-.22.94-.29.65-.29,1.01-.58.94-.86,0-.29-.07-.5-.36-.65s-.79-.07-1.51.22v1.58h0ZM102.74,35.86c.43-.22.65-.43.65-.72s-.14-.5-.43-.65c-.07-.07-.14-.07-.22-.07v1.44h0ZM102.74,31.54h0v-.36.36ZM102.74,29.02v.29-.29h0ZM102.74,31.18v.36c-.07.36-.43.65-.94.86v-1.58c.22-.07.43-.07.5-.07.22.07.43.22.43.43h0ZM102.74,34.42v1.44c-.07,0-.22.07-.29.14l-.65.22v-1.66c.36-.07.72-.14.94-.14h0ZM102.74,37.66v1.58c-.36.14-.65.29-.94.43v-1.66l.43-.22c.22-.07.36-.14.5-.14h0ZM102.74,41.33v1.44c-.22.14-.5.22-.86.36l-.07.07v-1.44l.14-.07c.22-.14.5-.22.79-.36h0ZM102.74,45.43v1.94c-.36.29-.72.36-.94.36v-2.74c.14.29.36.43.5.5s.22,0,.43-.07ZM101.81,30.82v1.58c-.07,0-.14,0-.22.07-1.44.5-2.59,1.01-3.6,1.37v-1.87h.07c1.8-.65,3.02-1.08,3.74-1.15h0ZM101.81,34.56v1.66c-1.37.5-2.45.94-3.1,1.37-.29.14-.5.29-.72.36v-2.02c.22-.07.36-.14.58-.22.86-.29,1.66-.58,2.45-.86.29-.07.58-.22.79-.29h0ZM101.81,38.02v1.66c-.86.29-1.51.58-1.94.86-.79.5-1.37.58-1.73.29-.07-.07-.07-.14-.14-.14v-.94c.29-.36.86-.72,1.8-1.01.65-.29,1.37-.5,2.02-.72h0ZM101.81,41.76v1.44c-.36.14-.58.29-.65.5-.07.07.07.43.43,1.01.07.14.14.22.22.29v2.74h-.07c-.36-.07-.65-.36-.79-.86-.22-.43-.36-.86-.58-1.15-.36-.5-.65-.94-.94-1.3-.36-.43-.5-.86-.5-1.08.07-.43.36-.72.86-.86.72-.22,1.37-.5,2.02-.72h0ZM97.99,30.67v-1.73c.58-.14,1.15-.29,1.8-.5.5-.14.86-.22,1.15-.07s.43.36.36.65c-.14.43-.5.72-1.08.86-.86.29-1.58.58-2.23.79ZM97.99,28.94v1.73c-.79.29-1.44.58-1.87.79-.65.22-1.08.22-1.3,0-.22-.29-.22-.65,0-1.08.29-.58.72-.86,1.37-1.01.22,0,.5-.07.79-.14.36-.07.65-.14,1.01-.29h0ZM97.99,31.97v1.87c-1.15.5-2.02.94-2.59,1.22-.65.36-1.15.36-1.37.07s-.29-.65-.14-1.15c.36-.65.79-1.08,1.51-1.15.07-.07.94-.29,2.59-.86h0ZM97.99,35.93v2.02c-.43.14-.79.07-1.08-.14-.22-.29-.29-.58-.07-.94.14-.36.5-.65,1.15-.94h0ZM97.99,39.74v.94c-.14-.29-.14-.58,0-.86v-.07Z"/>
    <path class="cls-5" d="M277.63,108.43v-3.31c.22.07.43.22.65.43.43.5.5.94.22,1.37-.14.22-.43.72-.86,1.51h0ZM277.63,100.58c.29.5.65,1.08,1.01,1.8.79,1.66,1.37,3.02,1.73,4.03.22.72.5,1.22.86,1.51.65.36,1.15.58,1.51.5.29-.07.29-.5-.07-1.22-.72-1.58-1.37-3.1-2.09-4.61.58-.22,1.08-.29,1.51-.36.65-.07,1.08-.36,1.3-.79.14-.58,0-1.08-.5-1.66-.36-.29-.72-.29-1.15.14-.43.29-1.01.72-1.8,1.22-1.01-2.23-1.58-3.38-1.66-3.53-.22-.22-.43-.43-.65-.58v3.53h0ZM277.63,92.59v-2.23c.58-.29,1.01-.36,1.22-.22.65.36.79.72.58,1.15-.22.58-.79.94-1.58,1.22l-.22.07ZM277.63,90.36v2.23c-.5.22-1.01.36-1.51.58v-2.09c.5-.29.94-.43,1.22-.58.07-.07.14-.14.29-.14h0ZM277.63,97.06v3.53c-.36-.58-.72-1.01-1.08-1.37-.14-.22-.36-.5-.43-.65v-1.73c.14-.07.43-.14.72-.14.22.07.5.14.79.36h0ZM277.63,105.12v3.31l-.22.36c-.14.43-.36.79-.58,1.01-.22.29-.43.36-.58.14-.07-.22-.07-.65.07-1.44.07-1.08.14-2.02.14-2.59.07-.58.29-.86.65-.86.14,0,.29,0,.5.07h0ZM276.12,102.6v-1.58c.36.14.5.5.29,1.08-.07.22-.22.36-.29.5ZM276.12,91.08v2.09c-.29.07-.5.22-.72.29.5.86.72,1.58.58,2.09-.14.36-.36.5-.65.43-.43-.14-.79-.5-1.15-1.15-.14-.29-.22-.5-.36-.72l-.36.14v-5.4c.36.36.58.86.65,1.37.07.43.22.94.43,1.51.65-.29,1.15-.5,1.58-.65h0ZM276.12,96.84v1.73c-.43-.65-.58-1.08-.43-1.3s.22-.29.43-.43h0ZM276.12,101.02v1.58c-.22.22-.43.36-.65.36-.36.07-.72-.07-1.08-.5-.14-.22-.5-.5-.94-.94v-1.44c1.44.5,2.3.79,2.59.86l.07.07h0ZM273.46,107.71v-1.66h.79c.5-.07.79,0,.86.36.14.43,0,.86-.22,1.15-.36.29-.72.36-1.15.22-.07,0-.22-.07-.29-.07ZM273.46,88.85v5.4c-.72.29-1.37.58-1.94.79v-2.38c.36,0,.72,0,1.01-.07.14,0,.22-.07.22-.07.14,0,.22-.07.22-.07-.5-1.01-1.01-1.87-1.44-2.74v-1.73c.22-.07.43,0,.79.07.5.22.86.43,1.15.79h0ZM273.46,100.08v1.44l-.14-.07c-.94-.79-1.51-1.3-1.58-1.58-.07-.22,0-.36.14-.36.22,0,.72.14,1.51.58h.07ZM273.46,106.06v1.66c-.43-.14-1.08-.29-1.94-.43v-4.68h0c.14-.36.36-.58.72-.65.29-.07.58.07.72.29.14.29.14.65-.07,1.01-.22.43-.58,1.22-1.08,2.38.65.22,1.15.36,1.66.43h0ZM271.51,98.28v-2.66c.22-.14.5-.22.79-.14.5.07.72.36.65.94-.14.72-.36,1.22-.79,1.44-.22.14-.5.29-.65.43ZM271.51,87.98v1.73c-.14-.14-.22-.29-.29-.5-.29-.5-.29-.86-.07-1.08.07-.07.22-.14.36-.14h0ZM271.51,92.66v2.38c-3.38,1.44-5.98,2.66-7.92,3.6-.58.29-1.01.43-1.44.58v-2.16c.07,0,.14,0,.22-.07,2.45-.94,4.82-2.02,7.27-3.02-1.87-.29-3.31-.65-4.32-1.08-1.01-.65-1.58-1.15-1.73-1.66-.14-.58,0-.94.43-1.08.36-.22.94-.07,1.8.43,2.16,1.3,4.03,2.02,5.69,2.09h0ZM271.51,95.62c-.29.22-.5.5-.65.86-.14.5-.36.94-.58,1.37-.22.5-.36.86-.29,1.08.07.14.22.22.5.07.22-.07.43-.29.79-.5l.22-.22v-2.66h0ZM271.51,102.6v4.68l-.14-.07c-.72,3.1-.94,5.9-.79,8.5,0,.36-.14.5-.36.43-.29,0-1.01-.65-2.16-2.09-.5-.58-.65-1.22-.43-1.8.43-1.22,1.15-3.1,2.09-5.54-2.74-.94-4.68-2.09-5.9-3.46-.58-.65-.86-1.22-.79-1.87s.36-1.08.72-1.15c.43,0,.79.29,1.3.94,1.22,1.66,3.02,2.95,5.4,3.96.58-1.37.94-2.16,1.08-2.52h0ZM262.15,82.22v-6.84h.07l-.07-.14v-2.09c.43.5.86,1.08,1.3,1.58.36-.14.65-.29.94-.43-.79-1.22-1.22-1.94-1.3-2.02,0-.29.07-.43.22-.58s.36-.14.65-.07c.14,0,.22.07.29.22.94,1.22,1.37,1.8,1.44,1.87h0c.36-.14.5-.22.58-.29.22-.22.29-.43.22-.58-.79-.86-1.15-1.44-1.08-1.73,0-.29.07-.58.36-.72s.58-.14.79-.07c.29.07.58.58,1.01,1.44.5,1.15.72,1.73.72,1.87.07.5-.07.86-.29,1.15-.14.07-.36.14-.65.22-.86.07-2.3.65-4.39,1.8-.22.14-.5.22-.65.36.5.65.86,1.37,1.01,2.09.22,1.08-.07,1.94-.86,2.45l-.29.5h0ZM262.15,70.56v.07c.07.43.22.72.43.72s.36-.07.43-.36c.14-.43.14-1.08.07-1.87.36.07.72.14,1.01.14.58.07.86-.14,1.01-.58.07-.43-.22-.72-.79-.79-.43-.07-.86-.14-1.37-.22.07-.36-.07-.86-.29-1.51-.14-.29-.29-.5-.5-.58v4.97ZM262.15,65.59v4.97c-.14-.72-.22-1.3-.36-1.87-1.44-.58-2.23-.94-2.38-1.15-.22-.22-.22-.36-.14-.5.14-.22.43-.22.86-.07.5.14.94.22,1.37.36-.07-.29-.14-.5-.22-.72-.22-.58-.07-.94.36-1.08.22,0,.36,0,.5.07h0ZM262.15,73.15v2.09c-.07-.14-.14-.22-.22-.29-.58-.86-.86-1.37-.94-1.51,0-.29.07-.43.22-.65.14-.07.36-.07.65,0l.29.36h0ZM262.15,75.38c-.22.07-.58.22-.94.43-.58-.72-1.3-1.51-2.02-2.38.22,0,.36-.07.5-.36.14-.5.29-1.15.22-1.87.36.07.65.07.86.14.58,0,.86-.22,1.01-.65.07-.5-.22-.72-.86-.79-.29-.07-.58-.07-1.01-.07,0-.5,0-.86-.14-1.15-.14-.58-.43-.79-.86-.72-.5.07-.65.36-.5,1.01,0,.14.07.36.14.58-.43-.07-.94-.22-1.44-.29-.43-.14-.72-.14-.86.07-.07.14,0,.36.22.5.22.22.58.43.94.58.5.14.94.29,1.3.43.07.58.14,1.15.14,1.8,0,.14,0,.29.07.43-1.22-1.51-2.88-3.46-5.18-5.9.14-.07.22-.14.29-.22l.65-.65c.36.43.79.86,1.22,1.37.22.29.43.43.72.43.22,0,.36-.07.5-.22s.22-.36.14-.58c-.07-.29-.65-.94-1.58-2.02.22-.22.5-.5.86-.79.36.36.72.79,1.08,1.3.29.29.5.43.72.43s.43-.14.58-.29c.14-.07.14-.29.14-.5-.07-.29-.58-.86-1.51-1.87v-.07c.36-.29.65-.43.79-.36.36.22.72.43,1.08.72.29.22.5.29.79.22.22,0,.36-.14.5-.29.22-.22.14-.43,0-.65-.07-.14-.72-.72-2.02-1.73-.58-.43-1.01-.58-1.37-.36-.5.14-.79.43-1.01.94-.14.36-1.3,1.66-3.38,3.89,0,0-.07,0-.07.07q-.07,0-.14.07c-.07-.14-.14-.22-.22-.29l-.29-.29v2.38c.65.65,1.8,1.94,3.46,3.74,1.8,2.09,3.17,3.74,4.1,4.97,1.3,1.66,1.8,2.74,1.58,3.24-.14.29-.29.58-.5.86-.65.65-1.01,1.3-1.15,1.94,0,.22.07.36.22.5.07.14.36.22.72.14.36,0,.72-.14,1.08-.43.14-.22.29-.43.43-.58v-6.84h0ZM262.15,97.06v2.16c-.43.07-.79.07-1.08-.07-.5-.14-.58-.5-.29-1.15.14-.29.58-.65,1.37-.94h0ZM252.22,79.06v-1.87c.07-.07.07-.14.14-.14-.07-.07-.07-.14-.14-.22v-2.45c.29.36.5.65.79.94,0-.14-.07-.36-.14-.5-.22-.58-.22-.94,0-1.15.22-.14.36-.14.5-.07.22.14.5.36.79.72.36.43.5.86.43,1.37.36.07.72.22,1.08.29.22,0,.36,0,.36-.07.22-.14.22-.5.07-1.08-.43-.5-1.01-.94-1.66-1.44-1.01-.79-1.8-1.44-2.23-1.94v-1.58c.29,0,.65.07,1.01.29.58.29,1.08.79,1.58,1.51.29.43.72.86,1.22,1.3,1.37,1.37,2.16,2.52,2.45,3.53.07.58.07,1.01-.14,1.15l-.14.14c-.94.29-2.16-.14-3.82-1.15,0-.07-.07-.07-.07-.07,0,.07-.07.14-.14.22,1.3,1.44,2.59,2.95,3.96,4.54.5.65.65,1.01.36,1.15s-.86.14-1.58-.07c-.43-.14-.86-.5-1.22-1.15-.58-.94-1.37-2.02-2.38-3.17-.36.36-.72.72-1.08,1.01ZM252.22,65.45v2.38l-.65-.65c-1.08-1.01-1.94-1.22-2.59-.65-1.22.94-1.94,1.44-2.3,1.37-.29,0-.58-.14-.72-.43-.14-.22-.22-.5-.07-.86.07-.29.5-.65,1.15-1.08,1.37-1.01,2.45-1.44,3.1-1.44.58,0,1.22.5,2.09,1.37h0ZM252.22,69.84v1.58c-.29-.29-.5-.58-.58-.72-.14-.43-.07-.72.29-.79.07,0,.22-.07.29-.07h0ZM252.22,74.38c-.29-.36-.58-.65-.94-1.01-1.66-2.02-2.66-3.02-2.95-3.1-.36-.14-.72-.22-1.08-.14-.5.07-.86.36-.94.79s.36.94,1.37,1.66c1.08.65,2.38,1.87,4.03,3.67.14.14.36.36.5.58v-2.45h0ZM252.22,77.18v1.87c-.65.5-1.22.79-1.8.94-1.01.29-2.02.22-3.02-.14-1.15-.5-2.02-1.15-2.59-1.94-.65-.86-.65-2.02,0-3.6.22-.43.43-.65.65-.58.14,0,.22.22.29.65.43,1.37,1.15,2.52,2.16,3.38.72.58,1.58.72,2.45.58.72-.22,1.37-.58,1.87-1.15h0ZM236.02,59.76v-4.68c.22.22.43.36.58.5,1.87-2.38,3.6-4.61,5.18-6.7.65-.79,1.15-1.22,1.51-1.22.5,0,.79.29.94.94.07.43-.22,1.01-.79,1.66-1.37,1.58-3.17,3.82-5.33,6.7.86.79,1.87,1.87,3.02,3.17.43.5.36.79-.14,1.01-.43.07-1.01.07-1.58,0-.72-.14-1.3-.72-1.66-1.66-.22-.36-.43-.72-.72-1.08-.29.43-.65.94-1.01,1.37h0ZM236.02,52.56c.29.14.5.14.72,0,.14-.14.14-.5-.14-.94-.22-.22-.43-.43-.58-.65v1.58h0ZM236.02,48.1c.86.65,1.51,1.22,1.87,1.58.43.29.79.36,1.01.22s.22-.43,0-.94c-.5-.65-.86-1.3-1.08-1.87,0-.29-.07-.5-.29-.72s-.58-.29-1.01-.36c-.22,0-.36,0-.5.07v2.02ZM233.71,42.34c.29,0,.58-.14.86-.43.29-.36.29-.86.07-1.58-.22-.58-.58-.86-.94-.79v2.81h0ZM236.02,46.08v2.02h-.07c-.5-.36-.79-.72-.79-1.15,0-.29.14-.5.5-.72.07-.07.22-.07.36-.14h0ZM236.02,50.98v1.58c-.07,0-.22-.07-.29-.07-.43-.36-1.15-.79-2.02-1.3v-2.16h.07c.43-.07.79,0,1.08.22.22.22.36.43.36.65.22.36.5.72.79,1.08h0ZM236.02,55.08v4.68c-.79,1.01-1.51,2.09-2.3,3.17v-3.38c.65-.94,1.3-1.8,1.94-2.66-.65-.58-1.3-1.15-1.94-1.58v-1.87c.86.65,1.66,1.15,2.3,1.66ZM229.32,46.3l.29-.36c.5.36,1.01.72,1.44,1.08.5.36.86.5,1.22.5.29-.14.36-.36.43-.72-.07-.43-.72-1.15-2.09-2.16,1.37-1.66,2.09-2.52,2.09-2.59.14.07.22.07.36.14.22.14.43.14.65.14v-2.81h-.29c-.94.29-2.3.14-4.1-.36v1.44l.86.43c.22.07.36.14.58.22-.5.58-.94,1.22-1.44,1.87v3.17h0ZM233.71,49.03v2.16l-.14-.07c-.58-.22-.94-.58-1.01-1.01,0-.29.14-.5.43-.72.14-.22.36-.29.72-.36h0ZM233.71,53.42v1.87c-1.22-.79-2.38-1.22-3.53-1.44-.36-.07-.65-.14-.86-.22v-1.66l.14-.07c.58-.36,1.37-.22,2.3.36.72.36,1.3.79,1.94,1.15h0ZM233.71,59.54v3.38l-.29.36c-.43.65-.86,1.01-1.22,1.01-.5,0-.79-.22-.94-.65-.07-.5.14-1.01.58-1.58.65-.86,1.22-1.73,1.87-2.52h0ZM229.32,51.26v-3.89c.22.14.43.43.65.94.36.86.58,1.44.43,1.8-.07.58-.36.94-.79,1.15h-.29ZM227.88,45.14c-1.3.65-2.02.94-2.16,1.01-1.8.36-3.53.5-5.04.29-.94,0-1.51.14-1.8.43-.29.36-.29.72.07,1.15.36.36,1.15.58,2.3.72,1.3-.07,2.88-.43,4.68-1.08-1.51,2.02-3.02,3.96-4.61,5.83-.65.72-.94,1.3-.94,1.66.07.65.36.94.86.86.65-.07,1.3-.65,1.94-1.66,2.02-2.74,4.03-5.4,6.12-8.06v-3.17l-.22.36c-.58-.43-.94-.72-1.22-.86-.58-.36-1.15-.72-1.73-1.15-.43-.36-.94-.36-1.66-.14-.43.22-.72.5-.79.86,0,.36.14.65.58.86,1.66.58,2.88,1.15,3.82,1.8-.07.07-.14.22-.22.29h0ZM229.32,39.17c-.36-.07-.72-.22-1.08-.29-.36-.14-.65-.07-.72.22-.07.22.07.43.43.72.43.29.86.58,1.37.79v-1.44h0ZM229.32,47.38v3.89c-.29,0-.58-.14-.86-.43-.36-.43-.36-1.01,0-1.66.22-.43.36-.94.43-1.58,0-.22.14-.36.36-.29.07,0,.07.07.07.07h0ZM229.32,51.98v1.66c-.43-.22-.65-.43-.65-.79,0-.29.22-.65.65-.86Z"/>
    <path class="cls-6" d="M186.05,122.62v-3.1c2.88.07,5.47-.5,7.85-1.66.58-.36.94-.43,1.08-.29.07.29-.07.58-.43.94-1.8,1.94-3.67,3.24-5.76,3.96-.72.22-1.58.29-2.74.14h0ZM186.05,116.78v-3.6c.29-.29.72-.29,1.22,0,.65.36,1.01.72,1.01,1.22.07.5-.22.94-.79,1.3-.29.14-.72.43-1.22.94l-.22.14h0ZM186.05,107.28v-8.14c1.22.22,2.02.58,2.38,1.01.14.36.07.79-.22,1.37-.22.5-.43,1.15-.58,1.94-.36,2.02-.86,3.31-1.58,3.82h0ZM186.05,97.27v-1.8h2.38c.86,0,1.22.14,1.22.5-.07.36-.5.79-1.22,1.22-.36.29-1.01.36-1.8.22-.14-.07-.36-.07-.58-.14ZM186.05,95.47v1.8c-1.73-.22-3.74-.29-6.19-.29v-1.44c2.02,0,4.1-.07,6.19-.07h0ZM186.05,99.14v8.14c-.07.07-.14.14-.29.22-.43.22-.94.22-1.58.07-1.08-.29-2.3-.5-3.67-.58.79.22,2.09,1.22,3.82,3.1.65.65.79,1.22.43,1.73-.29.43-.94.58-1.87.36-1.08-.14-2.09-.29-3.02-.29v-1.37c.5,0,.94.07,1.22.14.58.07.86.07.94-.07.14-.29-.36-.79-1.51-1.58-.29-.14-.5-.29-.65-.43v-3.1c1.22,0,2.45.07,3.67.14.79,0,1.22,0,1.44-.07.14-.22.36-.65.58-1.51-.94-.14-2.81-.22-5.69-.22v-1.51c3.17,0,5.18-.07,5.98-.14,0-.79-.07-1.3-.22-1.37-.43-.29-2.38-.36-5.76-.36v-1.66c2.66,0,4.75.07,6.19.36h0ZM186.05,113.18v3.6c-.86.79-1.51,1.22-1.73,1.22-.36.07-.5-.07-.43-.29,0-.22.29-.72.86-1.66.65-1.44,1.01-2.3,1.08-2.59.07-.14.14-.22.22-.29h0ZM186.05,119.52v3.1c-1.58-.22-3.67-.86-6.19-2.02v-2.09c2.16.65,4.25,1.01,6.19,1.01h0ZM179.86,116.06v-3.31c.22-.07.43,0,.79.14.65.29,1.01.72,1.01,1.15.07.5-.22.86-.72,1.22-.22.07-.58.29-.94.72l-.14.07ZM179.86,95.54v1.44h-.79c-.07.5-.14,1.01-.14,1.66v.14h.94v1.66c-.36,0-.65,0-1.01.07v1.8h1.01v1.51h-1.01v1.66l.07.07c.29,0,.58,0,.94-.07v3.1c-.72-.43-1.3-.65-1.58-.58l-.07-.07.07.07c-.36-.07-1.08.29-2.09.94-1.66.94-2.38,1.58-2.23,1.8.07.07.29.07.65,0,.43-.14,1.51-.22,3.38-.29.72,0,1.37.07,1.87.07v1.37c-2.3-.14-4.39.07-6.34.5v-3.6c1.08-.79,1.94-1.44,2.45-1.87-.94,0-1.73.07-2.45.14v-1.44c1.22-.07,2.3-.07,3.46-.07-.14-.43-.14-1.01-.07-1.73-1.3,0-2.45.07-3.38.07v-1.58h3.46v-1.8c-1.3-.07-2.45-.07-3.46,0v-1.66h3.46c0-.65,0-1.3-.07-1.87-1.22,0-2.38.07-3.38.14v-1.58h3.31v-.22c-.07-.86.14-1.3.72-1.37.65-.14,1.08.07,1.44.5.14.36.29.72.29,1.08h.58ZM179.86,112.75v3.31c-.79.58-1.22.86-1.37.86-.36.07-.5,0-.5-.29,0-.14.29-.65.86-1.51.29-1.08.43-1.73.43-1.94.14-.22.36-.43.58-.43h0ZM179.86,118.51c-1.3-.43-2.59-.86-3.89-1.51-.29-.14-.58-.29-.86-.36-.58-.36-1.08-.65-1.58-.94v1.8c.22.07.43.22.65.36,2.09,1.08,3.96,2.02,5.69,2.74v-2.09ZM173.52,95.54v1.58c-2.09.14-3.82.36-5.04.72-1.3.36-2.09.36-2.3,0l-.07-.07v-1.22c.65-.94,1.94-1.3,3.96-1.08.5.07,1.22.07,2.3.07h1.15ZM173.52,98.86v1.66c-2.16.07-3.31.22-3.53.5-.07.14-.14.5-.14,1.08h.22c.72.14,1.87.22,3.46.22v1.58c-1.66,0-2.81.14-3.38.22.07.86.29,1.37.58,1.58.14,0,.5.07,1.08,0,.58,0,1.15-.07,1.73-.07v1.44c-1.22.14-2.09.36-2.74.65-.5.14-.86.22-1.15,0-.43-.22-.72-.79-.86-1.66-.58-2.88-.94-4.54-1.15-4.97-.22-.65-.29-1.15-.07-1.37.36-.58,2.38-.79,5.98-.86h0ZM173.52,108.79v3.6c-.22.07-.43.14-.58.22-.72.22-1.22.14-1.44-.14-.36-.5-.43-1.01-.29-1.44.22-.58.72-1.15,1.58-1.73.29-.22.5-.36.72-.5h0ZM173.52,115.7v1.8c-1.01-.58-1.8-.86-2.3-.86-.5-.22-1.01-.14-1.51.14-.5.36-1.22,1.08-2.23,2.16-.43.5-.72.58-.94.43-.22-.22-.22-.65.14-1.15.58-.94,1.22-1.87,1.87-2.81.5-1.37,1.01-2.09,1.58-2.16.58.07,1.15.36,1.66.86.43.58,1.01,1.08,1.73,1.58h0ZM166.1,114.55c.07-.07.07-.14.07-.22.14-.22.07-.5-.07-.72v.94ZM166.1,96.62v1.15c-.22-.36-.22-.72,0-1.15h0ZM166.1,113.62v.94c-.14.36-.5.65-.94.94-.65.58-1.58,1.58-2.88,2.95-.5.58-.94.65-1.22.29-.07-.22.14-.86.72-2.02.72-1.15,1.22-2.02,1.44-2.59.29-.72.58-1.15,1.01-1.37s.86-.14,1.3.29c.29.22.43.36.58.58h0ZM136.73,119.45v-2.23c.36-.14.79-.29,1.3-.43,2.02-.5,3.89-1.58,5.4-3.38h.07c-1.37-1.44-2.74-2.23-4.1-2.52-.72-.14-1.01-.58-.86-1.15.14-.43.5-.72,1.15-.79.86-.14,1.58.22,2.16.94.14.22,1.01,1.01,2.52,2.38.86-1.3,1.22-2.81,1.08-4.54-.07-.58,0-.94.29-1.08.29-.22.58-.29,1.01-.29.29.07.58.29.72.5.14.29.14.72,0,1.3-.14.29-.29.72-.29,1.3-.29,1.3-.79,2.59-1.44,3.96,2.38,2.52,4.82,4.25,7.06,5.33.58.36.65.65.14,1.01-.5.43-1.08.65-1.87.79-1.37.22-2.38-.14-2.95-1.01-1.37-2.02-2.45-3.53-3.31-4.75-1.15,1.44-2.45,2.52-3.82,3.31-2.02,1.01-3.46,1.51-4.25,1.37h0ZM136.73,109.44c.36-.36.65-.65.65-.86.07-.29-.22-.43-.65-.5v1.37h0ZM136.73,107.06c.07,0,.14,0,.22-.07.65-.29,1.3-1.01,2.02-2.23.22,0,.58-.07,1.01-.22,2.74-.94,5.4-.86,7.85.07,0,0,.07,0,.22.07.72.36,1.37.29,1.87-.07s.86-.79,1.01-1.37c.22-.58-.07-.86-.65-.86-3.24-.07-5.98-.07-8.28,0-.43,0-.86,0-1.3-.07h-.29c.22-.5.43-.94.65-1.44.36-.86.72-1.66,1.15-2.38.14-.22.14-.58.07-.94-.14-.43-.36-.79-.72-1.15-.5-.43-.94-.58-1.37-.5-.36.07-.58.43-.5,1.01.22,2.59-.79,5.33-2.95,8.35v1.8ZM128.38,98.64h.65c2.09,0,3.6.07,4.46.29.65.14,1.15.07,1.58-.22.29-.22.5-.5.65-.94.07-.29,0-.58-.22-.72-.36-.14-2.74-.22-7.13-.14v1.73h0ZM136.73,105.26v1.8c-.29.07-.5.07-.65-.07-.22-.22-.07-.72.43-1.51l.22-.22h0ZM136.73,108.07h-2.66c.36-1.51.5-2.52.5-3.17.07-.43.14-.94.29-1.37.22-.43.14-.94-.22-1.51-.36-.36-1.01-.58-2.09-.65h-4.18v1.51h.79c.58,0,1.15.07,1.8.07.65.22,1.08.43,1.3.79.29.72.29,2.23,0,4.32h-3.89v1.58c1.3,0,2.45,0,3.53.07-.5,2.23-1.08,3.89-1.66,4.97-.65-.07-1.22-.07-1.87-.14v1.87c.29.07.58.07.86.14-.29.5-.58.94-.86,1.3v3.17c.86-.65,1.8-1.87,2.74-3.53.07-.29.22-.5.36-.65.5.07.94.22,1.3.36.65.22,1.15.29,1.66.29.5-.14.79-.36.86-.72,0-.43-.07-.79-.36-1.08-.29-.43-1.15-.72-2.59-.94.29-1.01.72-2.38,1.22-3.96,0-.36.07-.65.22-.94.22,0,.43,0,.65.07.79.14,1.37.14,1.8-.14.14-.14.36-.22.5-.36v-1.37h0ZM136.73,117.22v2.23c-.14,0-.29-.07-.43-.07-.36-.22-.58-.43-.58-.65-.07-.65.29-1.15,1.01-1.51h0ZM128.38,107.35v-3.6h.29c.36.14.58.36.65.79.14.43.07.86-.14,1.3-.29.43-.58.86-.72,1.3,0,.07-.07.14-.07.22ZM127.15,98.64h1.22v-1.73h-1.22v1.73h0ZM128.38,101.38v1.51c-.43-.07-.86,0-1.22,0v-1.44l1.22-.07h0ZM128.38,103.75v3.6c-.22.36-.36.5-.5.5-.29-.07-.43-.29-.43-.65,0-.86,0-1.44-.07-1.8-.14-.5,0-.94.36-1.37.22-.14.43-.29.65-.29h0ZM128.38,108.07v1.58h-1.22v-1.58h1.22ZM128.38,114.55v1.87c-.43,0-.79,0-1.22-.07v-1.8h1.22ZM128.38,117.86v3.17c-.43.29-.79.5-1.22.58h0v-2.45c.36-.29.79-.72,1.22-1.3h0ZM127.15,113.04v-2.74h.14c.36.14.58.36.65.79s-.07.79-.29,1.15c-.22.22-.36.5-.5.79ZM123.48,99c.07,0,.22-.07.43-.07.86-.14,1.94-.22,3.24-.29v-1.73h-2.45l-.07.07c.36-.72.43-1.3.29-1.8-.22-.36-.43-.58-.79-.58-.29,0-.5.22-.58.72-.5,1.51-1.73,2.88-3.82,4.1-.72.58-1.15,1.01-1.15,1.44s.22.72.79.79c.5.14,1.22-.14,2.23-.79.5-.36,1.08-.94,1.66-1.66,0-.07.07-.14.22-.22h0ZM127.15,101.45v1.44c-.86.07-1.58.29-2.02.58-.36.29-.94,1.8-1.73,4.61h3.74v1.58h-.65c-1.37,0-2.59.07-3.6.29-.22.79-.43,1.66-.72,2.59-.29,1.15-.36,1.8-.22,1.87.14.22.5.29,1.15.22,1.37-.07,2.66-.07,4.03-.07v1.8c-1.58,0-3.31.07-5.18.36-1.15.14-1.94,0-2.23-.43-.22-.36-.14-1.22.22-2.59.36-1.3.72-2.45,1.01-3.53-.43.07-.86.22-1.15.29-1.3.29-2.09.29-2.3,0-.29-.36-.29-.79-.07-1.3.29-.5.86-.86,1.51-1.01,1.37-.22,2.23-.29,2.59-.07,1.08-4.18,1.73-6.26,1.94-6.41.29-.14,1.08-.29,2.3-.22h1.37ZM127.15,110.3c-.29-.07-.58,0-.79.14-.43.36-.58.79-.43,1.3.07.29.07.86,0,1.66,0,.43.14.65.36.65.22.07.43-.14.65-.65.07-.14.14-.29.22-.36v-2.74h0ZM127.15,119.16v2.45c-.36.07-.72,0-.94-.29-.43-.29-.58-.58-.5-.86.14-.29.43-.58.86-.86.22-.07.36-.22.58-.43Z"/>
    <path class="cls-6" d="M125.28,144.72l.14-.58h.36c1.51,0,2.45-.14,2.88-.43.5-.29.86-1.01,1.15-2.16l2.45-10.51c.14-.5.14-.86.14-1.01-.07-.14-.22-.22-.43-.22-.14,0-.36.07-.58.07-.22.07-.5.14-.86.29l-2.09.79-.14-.5c1.01-.36,2.09-.86,3.31-1.37s2.59-1.08,4.1-1.8l-3.31,14.26c-.29,1.22-.29,1.94,0,2.23s1.01.36,2.3.36h.65l-.14.58h-9.94Z"/>
    <path class="cls-6" d="M149.26,140.4c.5-.65,1.01-1.3,1.3-1.87l.79-1.44v-.07c-.5.36-1.08.65-1.66.94-.14.07-.29.07-.43.14v-.86l.94-.29.86-.43.07-.07c.22-.14.36-.29.43-.43.14-.22.22-.43.22-.65l.29-1.08.29-1.3c.07-.43.14-.79.14-1.01.07-.22.07-.43.07-.79,0-.94-.14-1.73-.43-2.52-.36-.72-1.01-1.15-2.02-1.15-.36,0-.65.07-.86.14v-.72c.43-.07.86-.14,1.3-.14,1.58,0,2.81.72,3.6,2.09.86,1.37,1.01,3.17.5,5.4-.65,2.81-2.16,5.33-4.54,7.49-.29.29-.58.58-.86.79v-2.16ZM141.62,144.86c1.58-.22,2.95-.72,4.1-1.44,1.15-.79,2.16-1.58,2.95-2.45.22-.22.36-.43.58-.58v2.16c-1.01.79-2.02,1.37-3.02,1.87-1.51.65-3.02.94-4.68.94l.07-.5h0ZM149.26,138.1c-.43.14-.79.22-1.15.29l-.58.07-.5.07c-1.22,0-2.23-.43-2.74-1.15-.5-.79-.86-1.66-.86-2.59v-.79l.14-.79c.36-1.73,1.22-3.24,2.52-4.54.86-.86,1.94-1.51,3.17-1.73v.72c-.65.22-1.15.58-1.58,1.15-.36.43-.65.94-.86,1.37-.22.36-.36.86-.5,1.37v.29l-.07.36-.14.86c-.07.29-.14.65-.07.86-.07.86.07,1.66.29,2.38.36.72,1.01,1.08,2.09,1.08l.36-.07.5-.07h0v.86Z"/>
    <path class="cls-6" d="M172.51,127.01c-1.94.36-3.6,1.15-4.9,2.45-.58.5-1.08,1.01-1.51,1.58v-2.16c.79-.58,1.51-1.01,2.38-1.44,1.3-.58,2.59-.86,4.03-.86v.43h0ZM166.1,133.63l.72-.14.86-.07c1.3,0,2.23.5,2.95,1.44.72,1.01.94,2.38.72,4.18-.07.22-.07.43-.14.65l-.22.65c0,.22-.07.43-.14.58s-.14.36-.29.72c-.43.86-1.08,1.66-1.87,2.38-.72.65-1.51,1.01-2.59,1.08v-.65c.65-.07,1.22-.43,1.73-1.08.58-.72,1.01-1.8,1.22-3.31.14-1.37.07-2.59-.22-3.74-.22-1.08-1.01-1.66-2.3-1.66h-.43v-1.01ZM166.1,131.04c-.58.79-1.08,1.66-1.37,2.52l-.22.5-.14.58.86-.58.79-.36.07-.07v1.01h0c-.29,0-.65.14-1.01.29-.36.07-.72.29-1.01.58-.07.07-.22.29-.43.72-.14.36-.29,1.01-.36,1.8-.29,2.23-.22,3.82.36,4.9.58,1.01,1.3,1.51,2.16,1.51h.29v.65c-.22.07-.5.07-.72.07-1.44,0-2.52-.65-3.46-1.94-.86-1.3-1.15-3.38-.72-6.12.36-2.74,1.58-5.11,3.74-7.2.36-.36.79-.72,1.15-1.01v2.16Z"/>
    <path class="cls-6" d="M182.3,131.26l.72.22.79.14c.72.22,1.3.5,1.8.86.58.29,1.01.86,1.3,1.58l.22.5.14.5c.07.43.07.86,0,1.44,0,.5-.22,1.15-.43,2.02-.5,1.73-1.51,3.24-3.02,4.46-1.51,1.3-3.17,1.87-5.04,1.87-.5,0-.86,0-1.22-.07-.29,0-.5-.14-.79-.36-.43-.22-.58-.65-.43-1.08l.07-.29.14-.22c.07-.14.14-.29.29-.36.22-.14.5-.22.72-.22.36,0,.72.07.86.29l.65.5.07.14.14.07.5.43c.22.14.43.22.65.22h.22c.14,0,.22,0,.29-.07.72-.14,1.51-.58,2.3-1.37.79-.72,1.37-1.87,1.8-3.31.43-1.51.36-2.66-.29-3.46-.65-.86-1.51-1.44-2.45-1.73l-1.15-.29-1.08-.14-.14-.07v-.14l.07-.07v-.07l4.39-6.34h4.82c.29,0,.5,0,.65-.07l.5-.43.07-.07.07-.07.14.14-1.58,2.38c0,.14-.14.22-.22.22l-.36.07-4.54-.07-1.66,2.3Z"/>
    <path class="cls-5" d="M254.81,242.5v-2.16l.36.43c-.14.65-.22,1.22-.36,1.73h0ZM254.81,229.32v-3.67c.22-.65.58-1.37,1.15-2.09l.36-.5c2.81.72,5.54,1.73,8.21,3.02l-3.96-9,.79-1.51,1.8,1.94,4.61,4.75c.43.43.79.72,1.08.94.36.22.72.14,1.01-.29.22-.29.36-.58.58-1.01l.43.36-1.66,3.67-7.42-7.56,4.1,9.36-.36.72-.22-.14c-1.73-1.15-4.1-2.23-7.27-3.1l2.3,2.38c2.88,2.88,3.53,5.47,1.94,7.63-.5.72-1.22,1.22-2.16,1.51l-.29-1.58c1.01,0,1.87-.29,2.38-1.08.36-.5.5-1.15.29-1.8-.14-.72-.5-1.37-1.15-2.02l-5.4-5.54c-.14.22-.29.36-.36.43-.5.72-.65,1.51-.5,2.3.22.86.65,1.51,1.44,2.02l-.29,1.73c-.65-.58-1.15-1.15-1.44-1.87ZM254.81,225.65v3.67c-.22-.5-.36-1.01-.36-1.51,0-.72.07-1.44.36-2.16h0ZM254.81,240.34v2.16c-.36,1.15-.79,2.02-1.37,2.59-.5.58-1.08.86-1.8.79-.65,0-1.3-.22-1.87-.72v-2.38c0,.07.07.14.14.14.72-.94,1.15-1.8,1.22-2.59.07-.86-.22-1.58-.79-2.09-.22-.22-.43-.36-.58-.43v-1.37h.14c.43,0,.86.14,1.22.5.72.72,1.01,1.66.86,2.88-.22,1.3-.79,2.45-1.8,3.46l.29.29c1.15,1.01,2.09,1.15,2.88.29.65-.72,1.15-1.87,1.37-3.6l.07.07ZM249.77,236.45v1.37c-.36-.14-.65-.07-.94.22-.43.5-.58,1.22-.36,2.23.22.94.65,1.8,1.3,2.52v2.38l-.14-.14c-1.08-1.01-1.73-2.38-1.94-4.1-.14-1.73.22-3.02,1.08-3.96.29-.29.65-.5,1.01-.5h0ZM241.34,256.1v-1.58c.22.22.43.29.72.07.36-.36.65-1.3.72-2.81l.36.65c-.14,1.66-.58,2.81-1.3,3.38-.14.14-.29.22-.5.29h0ZM241.34,246.6c.22.22.36.43.58.72l2.16,3.31,1.3,2.16,1.15-1.22-1.58-2.45c-.86-3.38-.94-5.4-.22-6.12.14-.14.43-.29.79-.29l-.22-1.8c-.36.07-.65.29-.94.5-.5.5-.79,1.37-.79,2.52-.07,1.22.14,2.52.65,3.89l-.07.07-1.08-1.66c-.29-.36-.5-.72-.79-1.01s-.65-.43-.94-.5v1.87ZM241.34,244.73v1.87l-.07-.07c-.29-.29-.58-.36-.79-.14-.43.36-.58,1.37-.5,2.95l-.36-.65c-.07-1.73.22-2.95.94-3.6.22-.22.5-.36.79-.36h0ZM241.34,254.52h0c-.14-.14-.29-.5-.58-1.08l-1.94-3.46-1.01-2.23-1.51,1.08v1.22c.22-.07.5-.14.72-.22l.86,1.58c.29,1.37.36,2.66.36,3.96-.07,1.3-.29,2.09-.65,2.3-.36.29-.79.22-1.3-.36v2.09c.5.14,1.01.07,1.44-.36.58-.43.94-1.22,1.08-2.45.14-1.15,0-2.45-.36-3.82l.07-.07.94,1.73c.36.58.58.94.72,1.15.36.43.79.58,1.15.5v-1.58ZM236.3,248.83v1.22c-.43.22-.79.43-1.08.65-.79.65-1.01,1.58-.65,2.88.36,1.51.94,2.74,1.66,3.6,0,.07.07.14.07.14v2.09c-.36-.07-.79-.43-1.22-.86-.5-.65-.86-1.37-1.08-2.16v-4.54c.36-1.08.94-1.94,1.87-2.66.14-.14.29-.22.43-.36h0ZM234,261.14v-1.15l.29.72c-.07.14-.22.29-.29.43ZM234,251.86v4.54c-.22-.79-.36-1.58-.29-2.52,0-.72.07-1.37.29-2.02h0ZM234,260.06c-.79,1.15-1.66,2.09-2.66,2.74-.94.58-1.8.72-2.66.5s-1.58-.79-2.23-1.8c-.5-.79-.94-1.73-1.15-2.81-.29-1.08-.36-2.09-.22-3.02.14-1.37.72-2.38,1.8-3.02.65-.43,1.3-.72,1.87-.72s1.01.14,1.3.5c.07.14.14.36.22.58l.43-.29-.58-2.16c-1.08.29-2.16.79-3.17,1.44-1.73,1.08-2.81,2.66-3.17,4.75s.07,4.03,1.22,5.9c.79,1.15,1.73,1.8,2.81,2.09,1.01.22,2.16-.07,3.31-.79.94-.65,1.94-1.58,2.88-2.81v-1.08h0ZM209.95,273.96v-.94l.14.65c-.07.07-.07.14-.14.29h0ZM209.95,265.03c.07.43.22.94.36,1.44l1.66,5.33.65,2.45,1.44-.86-.86-2.74c.07-3.67.58-5.76,1.51-6.19.29-.14.5-.07.72.29.07.22.22.43.29.72l1.15,3.82c.22.58.36,1.01.43,1.22.43.72.94.94,1.66.58.79-.43,1.44-1.51,1.87-3.1l-.22-.72c-.36,1.51-.79,2.38-1.3,2.59-.29.14-.5.07-.65-.22-.07-.14-.22-.5-.43-1.08l-1.15-3.82c-.14-.43-.22-.79-.43-1.01-.43-.86-1.01-1.08-1.8-.72-.65.36-1.15,1.08-1.51,2.23-.36,1.08-.5,2.38-.43,3.89l-.14.07-1.3-4.18c-.5-1.66-.72-2.88-.58-3.6.07-.72.5-1.3,1.22-1.73.36-.22.94-.29,1.66-.36l.43-1.51c-.5.14-.94.29-1.37.5-1.37.72-2.3,1.8-2.74,3.24,0,.22-.07.43-.14.65v2.81ZM209.95,262.22v2.81c-.14-1.01-.14-1.94,0-2.81h0ZM209.95,273.02v-.07c-.58,1.15-1.15,1.8-1.73,2.02-.36.14-.58,0-.72-.36-.14-.22-.22-.58-.29-1.15l-1.08-5.4.58-.22c.5-.22,1.08-.43,1.8-.58l.29-.94-2.81,1.15-.5-2.66-1.37,1.01.43,2.23-.72.29v.65l.86-.36,1.01,5.33c.07.58.22,1.01.36,1.37.36.86,1.01,1.15,1.8.86.86-.36,1.58-1.08,2.09-2.23v-.94h0ZM203.83,276.91v-1.01c.07-.14.14-.29.29-.43,0-.14.14-.29.29-.5l.07.72c-.22.43-.43.86-.65,1.22h0ZM203.83,264.38v-1.3c.29-.07.58-.07.86-.07l-.72,1.37h-.14ZM203.83,263.09v1.3c-.58-.07-1.08,0-1.51.14-.79.29-1.3.79-1.51,1.44-.14.72-.14,1.94.07,3.67l.86,6.34c.07.58.14.94.22,1.15.14.29.36.43.65.29.29-.07.72-.58,1.22-1.51v1.01c-.58.86-1.15,1.44-1.8,1.58-.72.29-1.22,0-1.51-.72-.07-.36-.14-.79-.22-1.37l-.79-5.47c-.29-1.94-.07-3.53.58-4.9s1.73-2.23,3.17-2.74c.22-.07.36-.14.58-.22h0ZM203.83,268.34l-.58.22-.29.72.86-.29v-.65h0ZM192.82,281.02c.29-.29.58-.65.79-1.15.65-1.01,1.01-2.23,1.22-3.67l.14-.07.14,2.02c.07.65.14,1.08.22,1.3.22.79.72,1.08,1.44.86.94-.29,1.73-1.15,2.52-2.66l-.07-.72c-.72,1.37-1.3,2.16-1.8,2.3-.29.07-.5,0-.58-.36-.07-.14-.14-.58-.14-1.15l-.36-3.96-.14-2.45c-.79.22-1.58.36-2.3.58l-1.08.43v.72c.58-.14,1.22-.22,1.87-.07l.14,1.8c-.29,1.37-.65,2.59-1.22,3.74-.29.58-.58,1.01-.79,1.3v1.22ZM192.82,272.3v.72h-.14c-.94.29-1.51,1.08-1.73,2.38-.29,1.58-.22,2.88.07,4.03.22.79.58,1.08,1.08.94.22-.07.43-.22.72-.58v1.22c-.36.36-.72.58-1.15.72-1.08.29-1.8-.22-2.16-1.58-.43-1.44-.29-3.02.5-4.82.65-1.37,1.58-2.45,2.81-3.02h0ZM183.74,283.61v-1.08c.22.07.5.07.86,0,.94-.22,2.02-.94,3.17-2.23v.65c-1.37,1.51-2.66,2.38-3.82,2.66h-.22ZM183.74,279.86v-.72c.43-.22.72-.5,1.01-.79.5-.65.72-1.37.5-2.16-.14-.79-.58-1.15-1.15-1.01-.14,0-.22.07-.36.14v-.72c.29-.22.65-.29.94-.36.5-.14.86-.07,1.22.22.36.22.65.58.72,1.08.29,1.01-.07,1.94-.94,2.88-.5.58-1.15,1.08-1.94,1.44ZM183.74,274.61v.72c-.43.22-.86.72-1.15,1.51-.36.94-.5,1.94-.36,3.02.58-.22,1.08-.43,1.51-.72v.72c-.43.14-.94.36-1.44.43l.07.36c.29,1.08.72,1.73,1.37,1.87v1.08c-.65.14-1.22,0-1.8-.36-.29-.22-.5-.5-.72-.79v-4.9c.07-.22.22-.36.29-.58.65-1.15,1.37-1.94,2.23-2.38h0ZM181.22,271.44v-1.22h.58l-.5,1.3-.07-.07ZM181.22,270.22v1.22c-.58-.36-1.08-.5-1.51-.43-.58.07-1.01.36-1.22.86-.29.58-.5,1.37-.58,2.52l-.43,6.05c-.07,1.22-.07,2.09,0,2.52.07.5.36.79,1.01.65.22,0,.58-.07,1.08-.22l-.07.5-3.89,1.22.36-6.19-4.9.72-.07.94c-.07,1.51-.58,2.81-1.44,3.89-.94,1.08-2.02,1.73-3.31,1.87-1.01.14-1.87-.07-2.66-.58l1.01-1.22c.58.79,1.44,1.08,2.38.94,1.44-.14,2.16-1.37,2.3-3.67l.14-1.94-1.37.22.43-.72.94-.14.29-4.61h-.58c-.86.14-1.51.58-2.02,1.22-.5.72-.72,1.44-.58,2.3v.14l-1.44.94c-.22-3.1,1.73-4.97,5.9-5.54h.43l-.36,5.33,4.97-.65.07-2.45c.14-1.58.58-2.88,1.37-3.89.72-1.01,1.73-1.58,3.02-1.8.22,0,.5-.07.72,0h0ZM181.22,277.56c-.58,1.3-.72,2.59-.43,3.89.14.36.29.72.43,1.01v-4.9h0ZM147.38,291.31v-.07l1.08-1.08c.5.22,1.08.36,1.58.36.79,0,1.37-.22,1.8-.72s.79-1.3,1.01-2.45l1.87-8.93-1.8-.07.58-.58,1.37.07v-.14c.36-1.51,1.15-2.74,2.23-3.6,1.15-.94,2.45-1.37,3.89-1.3.5,0,.94.07,1.3.14l-1.15,1.15c-.5-.29-1.01-.5-1.51-.5-.79,0-1.44.22-1.87.65-.36.43-.72,1.3-1.01,2.52l-.29,1.08,3.02.14-.72.65c-.65-.07-1.3-.14-2.02-.14h-.43l-1.37,6.7c-.43,2.09-1.22,3.6-2.3,4.68s-2.45,1.66-4.03,1.58c-.36,0-.79-.07-1.22-.14h0ZM147.38,285.91c.72-.29,1.37-.72,2.02-1.3,1.3-1.15,2.02-2.52,2.16-4.1.07-.79-.14-1.51-.58-2.09-.43-.5-1.01-.86-1.73-.94-.65,0-1.3.07-1.87.29v.58c.29-.22.65-.29,1.01-.22,1.08.07,1.51.94,1.37,2.74-.14,1.3-.5,2.45-1.22,3.38-.36.5-.79.86-1.15,1.08v.58ZM147.38,277.78v.58c-.43.22-.79.58-1.15,1.15-.65.94-1.08,2.09-1.22,3.38-.14,1.66.36,2.59,1.3,2.66.36,0,.72,0,1.08-.22v.58c-.65.22-1.3.29-1.94.22-.72,0-1.3-.36-1.66-.94-.43-.58-.65-1.22-.58-2.09.14-1.44.86-2.81,2.16-4.03.65-.58,1.3-1.01,2.02-1.3h0ZM147.38,291.24v.07h-.07l.07-.07h0ZM133.42,284.4v-.58c.79-.07,1.66-.36,2.66-.79l-.22.58c-.94.36-1.73.65-2.45.79h0ZM133.42,280.94v-.65c.29-.07.5-.22.72-.29.79-.43,1.22-1.01,1.37-1.8.22-.79,0-1.22-.58-1.37-.5-.07-1.01.07-1.51.43v-.72c.79-.36,1.58-.43,2.38-.29.5.07.86.29,1.08.65s.29.79.22,1.3c-.22,1.01-.94,1.73-2.09,2.23-.5.29-1.01.43-1.58.5ZM133.42,276.55v.72c-.22.14-.43.29-.58.5-.79.72-1.3,1.58-1.66,2.59.86.07,1.58.07,2.23-.07v.65c-.72.07-1.51.07-2.3-.14l-.07.36c-.29,1.51.07,2.38,1.22,2.59.36.07.72.07,1.15.07v.58c-.79.22-1.51.22-2.16.07-.72-.14-1.3-.5-1.66-1.08-.14-.22-.22-.36-.29-.58v-1.8c.36-1.37,1.15-2.52,2.52-3.53.5-.43,1.08-.72,1.58-.94h0ZM129.31,275.47v-.29h.14l-.14.29ZM129.31,275.18v.29l-.94,1.87-.79,1.73c-.43.86-.72,1.51-.86,1.94-.72,1.8-1.3,2.95-1.73,3.6-.22.29-.5.65-.86.86v-2.02c.07-.22.22-.43.29-.65l1.58-4.03h-.14c-.5.72-1.08,1.3-1.73,1.8v-.79c.72-.5,1.58-1.3,2.45-2.23l.79-1.66c-.58-.43-1.15-.72-1.8-.86-.5-.14-.94-.07-1.44.14v-.5c1.01-.29,2.09-.29,3.17-.07.36.07,1.01.29,2.02.58h0ZM129.31,281.02v.22c-.14.58-.14,1.15,0,1.58v-1.8ZM124.13,274.68v.5c-.14.07-.36.22-.5.36-.5.36-1.01,1.01-1.58,1.87-.5.86-.86,1.66-1.01,2.3-.14.72,0,1.15.43,1.22.65.14,1.51-.22,2.66-1.15v.79c-.29.22-.58.43-.94.65-.94.58-1.87.79-2.74.72-.72.29-1.3.58-1.73.94v-.79c.36-.14.72-.29,1.15-.43-.58-.43-.72-1.15-.5-2.02.36-1.51,1.37-2.88,2.95-4.03.58-.43,1.15-.72,1.8-.94h0ZM124.13,283.46v2.02c-.29.36-.72.58-1.15.86-1.37.72-2.66.94-4.1.65-.07,0-.07-.07-.14-.07v-.94c.36.22.79.43,1.3.58.94.22,1.73,0,2.45-.58.58-.5,1.15-1.37,1.66-2.52h0ZM118.73,275.62c.36-.29.65-.72.79-1.15.14-.5.14-.94,0-1.3s-.43-.65-.79-.79v3.24h0ZM118.73,267.77v-.22l.14.14-.14.07ZM118.73,267.55v.22l-1.22.5v-1.3h.14c.36.22.72.36,1.08.58h0ZM118.73,272.38v3.24c-.36.29-.72.5-1.22.65v-1.15c.22-.29.43-.58.5-.86.29-.79.14-1.22-.43-1.44h-.07v-.72l1.08.22c.07,0,.07.07.14.07h0ZM118.73,282.1v.79c-.5.36-.79.79-.94,1.22-.07.5.07,1.01.5,1.44.07.14.29.29.43.43v.94c-.43-.07-.86-.22-1.22-.43v-3.74c.36-.22.79-.43,1.22-.65h0ZM117.5,279.65v-.5c.14,0,.29,0,.43-.07l-.36.58h-.07ZM117.5,266.98v1.3l-.07.07c-.43-.5-.94-.79-1.3-1.01-.79-.29-1.51-.29-2.16.14q-.07.07-.14.07v-.65c1.22-.43,2.45-.43,3.67.07h0ZM117.5,272.09v.72c-.58-.22-1.3,0-2.09.58-.65.5-1.15,1.01-1.58,1.66v-1.66c.22-.14.43-.29.58-.43,1.15-.58,2.16-.86,3.1-.86h0ZM117.5,275.11v1.15c-.07.07-.22.07-.29.14-1.08.29-2.23.29-3.38,0v-.58c1.01.22,1.87.22,2.59,0,.43-.22.79-.43,1.08-.72h0ZM117.5,279.14v.5c-1.44.36-2.66.5-3.67.43v-.86c.07,0,.14.07.14.07.86.29,2.09.22,3.53-.14h0ZM117.5,282.74v3.74c-.29-.14-.5-.36-.72-.58-.5-.43-.72-1.01-.58-1.51.14-.65.58-1.22,1.3-1.66h0ZM113.83,266.4v-.5c.14.14.29.22.43.29l-.43.22ZM113.83,265.9v.5l-1.08.36h0v-1.44c.07.07.14.07.29.14.29.14.58.29.79.43h0ZM113.83,266.9v.65c-.29.29-.72.65-1.08,1.15v-1.37c.22-.07.43-.22.65-.29.14-.07.29-.14.43-.14h0ZM113.83,273.38v1.66c-.14.22-.29.5-.36.72.14.07.22.07.36.07v.58c-.14-.07-.36-.14-.58-.22l-.14.36c-.43,1.37-.22,2.3.72,2.66v.86c-.36-.07-.65-.14-.94-.22-.07,0-.14-.07-.14-.07v-5.54c.29-.29.65-.65,1.08-.86ZM112.75,265.32v1.44c-.43-.5-.86-.86-1.22-1.01-.58-.29-1.08-.36-1.51-.22v-.58c.94-.07,1.8,0,2.74.36h0ZM112.75,267.34v1.37c-.36.43-.72.94-1.15,1.58l-1.58,2.38v-2.81c.79-1.08,1.73-1.94,2.74-2.52h0ZM112.75,274.25v5.54c-.65-.22-1.08-.65-1.37-1.22-.22-.65-.22-1.37,0-2.16.29-.79.72-1.51,1.37-2.16h0ZM110.02,277.27v-.5l.14-.07c.07,0,.29-.07.5-.14l-.43.58c-.07.07-.14.07-.22.14ZM110.02,264.96v.58c-.22,0-.43.14-.65.22-.65.36-1.51,1.3-2.52,2.66l-3.82,5.11c-.43.5-.65.86-.72,1.01-.14.29-.07.5.22.65.36.14,1.15,0,2.52-.43.07,0,.29-.07.5-.14l-.43.65c-1.66.58-2.95.72-3.74.36l-.07-.07v-2.3c.07-.07.14-.22.29-.36l3.31-4.46c1.15-1.58,2.45-2.59,3.89-3.1.43-.22.79-.29,1.22-.36h0ZM110.02,269.86c-.14.14-.22.36-.36.5l-3.1,4.61c-.29.5-.5.94-.65,1.22-.29.72-.07,1.22.58,1.51.86.36,2.02.14,3.53-.43v-.5c-1.22.43-2.02.65-2.38.5-.29-.14-.36-.36-.22-.65.07-.14.29-.5.65-1.01l1.94-2.95v-2.81h0ZM101.3,269.57c.07-.14.14-.29.22-.36.43-.72.5-1.44.36-2.16-.14-.36-.29-.72-.58-1.01v3.53ZM101.3,266.04v3.53c-.79,1.15-1.87,2.02-3.38,2.59-1.01.36-2.02.43-2.95.29v-.5c.65.22,1.44.07,2.3-.5,1.01-.58,1.87-1.51,2.45-2.66.86-1.51.79-2.52-.14-3.02-.65-.36-1.51-.22-2.59.43-.79.43-1.44,1.08-2.02,1.87v-1.94c.43-.29.86-.43,1.37-.65,1.66-.58,3.02-.58,4.25.07.29.14.5.29.72.5h0ZM101.3,273.24v2.3c-.65-.29-.79-.79-.43-1.51.07-.22.22-.5.43-.79h0ZM94.97,259.78v-.65c1.01.65,1.94,1.37,2.59,2.23l-1.73,1.44-.43-.29c.14-.22.29-.36.43-.5.22-.36.22-.79-.07-1.3-.14-.36-.43-.65-.79-.94ZM94.97,259.13v.65c-.14-.22-.36-.36-.65-.5-1.01-.65-2.16-.79-3.53-.36-.94.29-1.87.72-2.74,1.44-.94.65-1.66,1.37-2.16,2.16-.65.94-.86,1.87-.72,2.74s.65,1.58,1.58,2.16c.94.65,2.16,1.08,3.67,1.3l-.58.58c-1.8-.36-3.24-.86-4.32-1.58-1.15-.72-1.87-1.66-2.09-2.66-.22-1.08.07-2.16.86-3.31,1.22-1.87,2.88-3.02,4.97-3.53,2.02-.5,3.96-.22,5.69.86v.07h0ZM94.97,266.11c-.94.58-1.66,1.3-2.23,2.23-.36.72-.5,1.44-.29,2.16.14.65.5,1.15,1.15,1.51.43.22.86.36,1.37.43v-.5c-.07-.07-.14-.07-.22-.14-1.01-.5-1.08-1.51-.22-3.02.14-.22.29-.5.43-.72v-1.94h0ZM72,257.69v-2.02l.43-.29,3.1-2.52c.29-.29.58-.5.72-.72.29-.36.36-.65.07-.86-.43-.29-1.44-.36-3.02-.07l.58-.5c1.8-.22,3.02-.07,3.74.5.58.5.65,1.08.07,1.73-.22.29-.58.58-.94.86l-1.51,1.3.07.07c1.37-.65,2.59-1.01,3.82-1.15,1.22-.07,2.09.07,2.66.5.29.22.5.5.65.79l-1.73.5c-.14-.36-.29-.65-.43-.79-.86-.65-2.88-.29-6.19.94l-2.09,1.73h0ZM72,251.78c.29-.22.58-.43.79-.72.5-.65.79-1.3.79-2.02,0-.65-.29-1.3-.86-1.73-.22-.22-.43-.36-.72-.5v.86c.22.36.22.79,0,1.3v2.81ZM72,246.82v.86c-.07-.14-.22-.29-.36-.43-.58-.5-1.44-.5-2.59-.14-.43.14-.79.29-1.22.58v-1.3c.22,0,.5-.07.72-.07,1.37-.22,2.52,0,3.46.5h0ZM72,248.98v2.81c-.94.72-2.02,1.22-3.38,1.37-.29,0-.5,0-.79.07v-.79c.14-.07.22-.07.29-.07,1.15-.43,2.16-1.08,3.02-2.09.43-.43.72-.86.86-1.3h0ZM72,255.67v2.02l-.22.14-1.37-.94,1.58-1.22h0ZM67.82,243.14v-.07l.07.07h-.07ZM67.82,240.98h0l1.15-.36,2.59.65-1.51.5-2.23-.79ZM67.82,240.98h-.07.07ZM67.82,243.07v.07l-2.23,1.3-3.46,2.09c-.5.29-.86.5-.94.65h-.07v-1.87l2.38-1.44c.65-.36,1.08-.72,1.3-.86.36-.29.36-.58.14-.86-.14-.14-.5-.36-1.08-.72l.43-.22,3.53,1.87h0ZM67.82,246.38c-1.37.29-2.52.94-3.38,1.94-.58.58-.79,1.3-.79,1.94-.07.72.22,1.3.72,1.8.94.79,2.09,1.15,3.46,1.15v-.79c-.94.22-1.73.14-2.3-.29-.79-.72-.65-1.73.5-3.02.58-.58,1.15-1.08,1.8-1.44v-1.3h0ZM61.13,248.54v-.65c.43.36,1.37.5,2.88.5l-.65.36c-.86,0-1.58-.07-2.23-.22h0ZM61.13,240.26v-3.38c.58.14,1.01.43,1.3.72.58.65.5,1.3-.22,1.94-.22.22-.58.43-.94.65l-.14.07ZM61.13,236.88v1.15c0-.07,0-.14-.07-.22-.72-.79-2.88-.79-6.48,0l-1.01.5v-1.73l3.02-1.73c.58-.29.94-.5,1.08-.65.22-.22.22-.43,0-.65-.29-.36-1.3-.58-2.88-.65l.65-.36c1.73.07,2.88.43,3.53,1.15.5.58.43,1.08-.14,1.58-.22.22-.65.43-1.15.79l-1.8.94.07.14c1.51-.43,2.81-.58,4.03-.5.43.07.86.14,1.15.22h0ZM61.13,238.18c0,.14-.07.29-.29.43-.14.14-.36.29-.65.43l-3.46,1.94c-.58.29-.94.58-1.15.72-.65.5-.65,1.08-.14,1.66.58.65,1.73,1.08,3.46,1.08l.72-.36c-1.66,0-2.59-.22-2.95-.65-.22-.22-.14-.43.07-.65.14-.14.5-.36,1.01-.65l3.38-1.87v-2.09h0ZM61.13,245.3v1.87c-.22.22-.22.43,0,.65v.72c-.5-.22-.94-.43-1.3-.79-.5-.5-.43-1.08.14-1.58.22-.22.58-.5,1.08-.79l.07-.07h0ZM53.57,232.13v-1.66l1.73-.72,1.08,1.3-2.38.94-.43.14h0ZM53.57,222.7v-.58l.43.65-.43-.07ZM53.57,222.12v.58l-1.22-.36-.65-1.01-2.38.86v-1.73l1.51-.58-1.15-1.73,1.58.29,2.3,3.67h0ZM53.57,230.47v1.66l-3.24,1.44c-.5.22-.79.36-1.01.5v-1.73h.07l1.87-.79-.07-.14c-.72.07-1.3.14-1.87.22v-.58c1.01.07,2.16,0,3.31-.14l.94-.43h0ZM53.57,236.59v1.73l-1.51.86-1.22-1.15,2.23-1.15.5-.29h0ZM49.32,235.58v-.58c.43.29,1.3.58,2.59.72l-.72.29c-.72-.07-1.37-.22-1.87-.43h0ZM49.32,228.38v-1.66l.72-.29c.58-.29.94-.43,1.08-.58.29-.14.29-.36.14-.65-.29-.36-.86-.58-1.94-.79v-.43c1.58.29,2.66.72,3.17,1.44.43.65.36,1.22-.36,1.66-.22.14-.58.36-1.22.58l-1.58.72ZM49.32,220.46v1.73l-5.11,1.94c-1.66.58-3.1.79-4.39.5-1.22-.22-2.23-.86-2.88-1.94-.07-.07-.07-.14-.14-.22v-2.52l1.15.22c-.65.94-.65,1.87-.14,2.74.36.5.86.79,1.51.86.58.07,1.51-.14,2.66-.58l7.34-2.74h0ZM49.32,223.99h-.22l-.65.29c.29.07.58.07.86.14v-.43h0ZM49.32,226.73v1.66l-2.09.86c-.29.14-.58.29-.65.36-.36.29-.43.5-.29.79.22.29,1.01.5,2.23.65h.79v.58c-2.3.07-3.74-.29-4.46-1.22-.5-.72-.29-1.3.5-1.87.29-.22.58-.36,1.01-.5l2.95-1.3h0ZM49.32,232.34v1.73q-.07,0-.14.07c-.22.14-.29.36-.14.65.07.07.14.14.29.22v.58c-.72-.29-1.15-.58-1.51-1.01-.43-.65-.29-1.22.36-1.66.22-.14.58-.36,1.15-.58h0ZM36.79,214.85v-.43c.36.14.86.29,1.37.43l-.72.22-.65-.22h0ZM36.79,212.54v-1.58l2.09-.58c.79-.22,1.3-.43,1.51-.5.43-.22.58-.5.36-.79-.07-.22-.36-.5-.79-1.01l.5-.14,2.88,2.88-2.52.65-3.89,1.08h-.14ZM36.79,206.42v-1.01c.58.14,1.15.14,1.73-.14.72-.29.94-.72.72-1.3-.29-.58-.86-.94-1.94-1.15-.14,0-.36-.07-.5-.07v-.94c.07,0,.14,0,.22.07,1.66.5,2.74,1.3,3.31,2.52.22.43.22.79,0,1.22-.14.36-.5.65-.94.86-.79.36-1.66.29-2.59-.07h0ZM36.79,199.22v-1.87c.07-.07.07-.14.14-.14l.65,1.66c-.22.14-.36.22-.58.29-.07.07-.14.07-.22.07h0ZM36.79,185.33v-.86c1.01.72,1.58,1.66,1.8,2.81.07.5.07.94,0,1.3l-1.3-.43c.36-.65.5-1.15.43-1.58-.07-.58-.36-.94-.94-1.22h0ZM43.85,208.73h1.22l2.3,1.3-1.58.07-1.94-1.37ZM31.68,138.74l.86.29c.07-.29.14-.5.14-.58.07-.86-.14-1.58-.65-2.23-.14-.14-.22-.29-.36-.36v-1.22c.29.29.58.58.79.94.65,1.15.94,2.66.72,4.39l-.07.65c-.5.14-1.01.22-1.44.29v-2.16h0ZM31.68,147.46l.5.43v1.73l-.5-.22v-1.94h0ZM36.79,184.46v.86c-.5-.22-1.37-.36-2.52-.43l-2.59-.07v-1.66l.94.07c1.66,0,2.95.36,4.03,1.15q.07,0,.14.07h0ZM36.79,197.35v1.87c-.43.07-1.01,0-1.87-.14-.79-.14-1.87-.5-3.24-.94v-.58c.5.14,1.08.22,1.58.29,1.22.22,2.16.22,2.66,0,.29-.07.58-.22.86-.5h0ZM36.79,201.82v.94c-.86-.07-1.73,0-2.52.29.58,1.01,1.22,1.73,1.94,2.16.22.07.36.14.58.22v1.01c-.14-.07-.29-.14-.5-.29-1.08-.65-1.94-1.58-2.52-2.88l-.36.07c-1.37.65-1.87,1.51-1.44,2.52.43.86,1.37,1.8,2.88,2.66l-.65.14c-1.08-.65-1.94-1.3-2.52-1.94v-4.32c.22-.14.43-.29.72-.36,1.3-.65,2.81-.65,4.39-.22h0ZM36.79,210.96v1.58c-.58.14-.86.29-1.01.36-.36.14-.43.36-.29.65s.58.58,1.3.86v.43c-1.3-.43-2.09-1.01-2.45-1.73-.36-.65-.22-1.22.5-1.58.29-.07.72-.22,1.3-.43l.65-.14h0ZM36.79,219.96v2.52c-.43-.79-.58-1.66-.36-2.59l.36.07h0ZM31.68,196.2v-1.58c.5-.22,1.01-.5,1.44-.72-.5-.07-1.01-.14-1.44-.22v-.43c1.44.22,2.74.14,3.89-.07l.36.65c-1.37.94-2.81,1.8-4.25,2.38h0ZM31.68,191.02v-1.66c.07,0,.14-.07.22-.07.79-.58,1.08-1.15.86-1.73-.14-.36-.5-.72-1.08-1.01v-.5c1.37.5,2.16,1.08,2.45,1.87.36,1.08-.5,2.09-2.45,3.1h0ZM31.68,178.42v-1.58h2.09c0-.29-.07-.43-.07-.58-.14-.79-.58-1.44-1.3-1.94-.22-.14-.5-.29-.72-.36v-1.08c1.51.79,2.52,2.52,3.02,5.18l.07.43-3.1-.07h0ZM31.68,154.73v-1.51h.07l1.37,2.23-1.44-.72h0ZM24.77,136.51c.14,0,.29.07.36.07l6.55,2.16v2.16c-2.3.43-4.61.72-6.91.79v-1.44c1.66-.07,3.6-.29,5.76-.72l-3.17-1.01c-1.01-.36-1.87-.72-2.59-1.08v-.94h0ZM31.68,135.86c-.5-.43-1.15-.72-1.87-.79l-.58-1.66c1.01.22,1.8.58,2.45,1.22v1.22h0ZM24.77,142.06l6.91,5.4v1.94l-2.02-.72-4.9-1.58v-1.58l5.69,1.8-5.69-4.46v-.79h0ZM31.68,153.22v1.51l-1.01-2.09,1.01.58h0ZM31.68,172.87v1.08c-.5-.22-1.08-.22-1.66-.14l-.07.07-1.08-1.44c1.08-.07,2.02.07,2.81.43h0ZM31.68,176.83v1.58l-2.38-.07.86,4.82h1.51v1.66l-3.53-.14c-1.37,0-2.23,0-2.59.07-.58.07-.79.43-.72,1.01.07.22.14.58.29,1.08h-.36v-3.82l4.75.14-.86-4.82h-.94c-1.08,0-2.09-.29-2.95-.65v-1.22c.5.14,1.01.22,1.66.22l1.94.07-.22-1.37.72.43.14.94,2.66.07h0ZM31.68,186.05c-.14,0-.22-.07-.36-.07l-1.08.14c.58.14,1.01.29,1.44.43v-.5h0ZM31.68,189.36v1.66c-.79.43-1.8.79-2.95,1.15l-.79.29c1.3.36,2.59.65,3.74.79v.43c-2.23-.36-4.1-.79-5.47-1.37l-.5-.72,1.51-.43c2.16-.72,3.6-1.3,4.46-1.8h0ZM31.68,194.62v1.58c-.72.29-1.37.58-2.09.79.72.22,1.37.43,2.09.58v.58c-.29-.07-.58-.14-.86-.29l-.72-.22-2.38-.79-.5-.65.94-.29c1.37-.43,2.52-.86,3.53-1.3h0ZM31.68,202.39v4.32c-.43-.43-.65-.86-.86-1.3-.29-.65-.29-1.3,0-1.94.14-.43.43-.79.86-1.08h0ZM24.77,164.3v-1.58l2.16.36c.29.07.58.07.72.07.43,0,.65-.14.65-.43,0-.86-1.15-2.02-3.53-3.31v-2.09l2.09.36c.58.07,1.01.14,1.22.14.29,0,.43-.14.43-.5,0-.5-.58-1.3-1.8-2.3l.79.14c1.22,1.08,1.87,2.16,1.94,3.02,0,.79-.43,1.15-1.22,1.15-.29.07-.72,0-1.37-.14l-1.94-.36v.14c1.37.65,2.45,1.37,3.31,2.16s1.3,1.58,1.3,2.3c0,.86-.5,1.3-1.44,1.3-.29,0-.72,0-1.15-.07l-2.16-.36h0ZM24.77,153.14v-1.58l.79.14c.72.22,1.3.29,1.51.29.5,0,.72-.14.72-.5,0-.22-.07-.65-.22-1.22l.5.07,1.15,3.89-2.59-.65-1.87-.43h0ZM25.27,166.75l1.22.22.5,3.53-1.22-.14-.5-3.6ZM23.11,130.32l1.08,1.3c-.94.43-1.51,1.08-1.58,2.02-.07.65.07,1.22.58,1.73.36.5.94.86,1.58,1.15v.94c-2.09-1.22-3.02-2.81-2.81-4.75.14-.94.5-1.73,1.15-2.38h0ZM24.77,141.7h-.36l.36.36v.79l-2.38-1.94-.07-.79h.29c.65.07,1.37.14,2.16.14v1.44h0ZM24.77,147.1l-1.44-.5c-.58-.14-1.01-.29-1.37-.29-.43-.07-.72.14-.79.72-.07.29-.07.65-.07,1.15l-.5-.14-.29-3.96,4.46,1.44v1.58h0ZM24.77,151.56v1.58l-2.09-.5c-.58-.14-1.01-.22-1.15-.22-.36,0-.5.14-.5.43-.07.5.5,1.37,1.66,2.38l-.72-.22c-1.22-1.08-1.8-2.16-1.8-3.1,0-.72.43-1.08,1.22-1.08.29,0,.72.07,1.37.22l2.02.5h0ZM24.77,157.32v2.09c-.43-.29-.86-.58-1.37-.79l-2.88-.58-.14-1.66,2.52.58,1.87.36h0ZM24.77,162.72v1.58l-1.8-.36c-.58-.07-1.01-.14-1.15-.14-.36,0-.58.14-.5.43,0,.58.58,1.37,1.8,2.38l-.79-.14c-1.22-1.15-1.87-2.16-1.94-3.1,0-.72.43-1.15,1.22-1.15.29,0,.72.07,1.37.14l1.8.36h0ZM24.77,176.47v1.22l-1.08-.65c-1.08-.86-1.8-1.94-2.02-3.24-.14-.94,0-1.8.5-2.52l1.3.86c-.79.65-1.08,1.44-.94,2.38.22,1.01.94,1.66,2.23,1.94h0ZM24.77,183.02v3.82h-.14l-1.37-3.82h1.51Z"/>
    <path class="cls-5" d="M283.32,195.19v-1.66c.07,0,.14-.14.22-.22.07-.36,0-.79-.22-1.37v-.94c.79,1.37,1.01,2.52.72,3.38-.14.43-.36.72-.72.79h0ZM283.32,190.15c.79.14,1.44,0,1.87-.5.58,2.23,1.51,3.46,2.59,3.74.58.14,1.15,0,1.66-.5.5-.43.86-1.15,1.08-2.02.43-1.37.22-2.74-.5-4.03-.43-.86-1.01-1.58-1.66-2.02-.65-.5-1.8-1.08-3.6-1.87-.36-.14-.79-.36-1.44-.65v1.66l3.24,1.3c1.44.65,2.52,1.37,3.1,2.09.58.65.72,1.51.5,2.38-.22.72-.58,1.3-1.08,1.66-.5.43-1.01.58-1.51.43-.79-.22-1.51-1.08-2.09-2.66.14-.86-.07-1.8-.65-2.74-.36-.65-.86-1.3-1.51-1.94v.79c1.01,1.22,1.37,2.16,1.22,2.88-.14.43-.5.58-1.22.36v1.66h0ZM283.32,179.86v-1.58c.22.07.43.14.58.22.14-1.15,0-2.16-.36-2.88-.07-.07-.14-.22-.22-.29v-1.58c.22.29.43.65.65,1.01.58,1.15.72,2.45.43,3.89h.36c1.58.29,2.45-.14,2.59-1.22.22-.94-.07-2.23-.79-3.74l.58.22c.86,1.87,1.22,3.31,1.01,4.54-.14.72-.5,1.22-1.08,1.66-.65.36-1.37.43-2.16.29-.58-.07-1.08-.22-1.58-.5h0ZM283.32,169.99v-1.58l1.87.5v-.14c-.72-.36-1.3-.79-1.87-1.22v-.79l.07.07c.86.79,1.94,1.66,3.31,2.45l2.81.79-.07,1.66-2.38-.72-3.74-1.01h0ZM283.32,164.66v-1.58c.07,0,.22,0,.36.07l1.87.5v-.14c-.86-.43-1.58-.94-2.23-1.44v-.79c.72.72,1.94,1.66,3.67,2.74l2.88.79v1.58l-6.26-1.73h-.29ZM283.32,159.34v-1.58c.22,0,.43.07.72.14l3.89,1.01c.58.22.94.29,1.15.29.36,0,.5-.14.58-.43,0-.5-.5-1.37-1.66-2.45l.79.22c1.15,1.22,1.73,2.23,1.66,3.17-.07.79-.5,1.15-1.3,1.08-.29,0-.72-.14-1.37-.29l-3.89-1.01c-.22-.07-.43-.14-.58-.14h0ZM283.32,154.15v-1.08c.07.07.14.07.22.14.86.58,1.8.94,2.88,1.01-.07-1.15-.43-2.09-.94-2.74-.58-.65-1.22-1.01-2.02-.94h-.14v-1.51c.94.07,1.73.58,2.45,1.51.79,1.01,1.15,2.23,1.15,3.67h.36c1.58,0,2.38-.58,2.38-1.73-.07-.94-.58-2.16-1.58-3.53l.65.14c1.22,1.58,1.8,3.02,1.87,4.18,0,.79-.29,1.37-.79,1.8s-1.22.72-2.09.72c-1.51,0-2.88-.5-4.25-1.58l-.14-.07h0ZM283.32,148.25v-.5c.22.22.5.43.79.65l-.72-.07-.07-.07h0ZM283.32,145.73v-1.51h.36l2.02.22v-.14c-.94-.29-1.73-.72-2.38-1.08v-.72c.86.65,2.16,1.37,3.89,2.09l2.88.36.29,1.66-2.52-.36-4.03-.43c-.22-.07-.36-.07-.5-.07h0ZM283.32,140.33v-1.51l3.89.43c.65.07,1.08.07,1.22.07.36-.07.5-.22.5-.5-.07-.5-.72-1.3-2.02-2.23l.79.14c1.37,1.01,2.09,1.94,2.16,2.88.07.79-.29,1.15-1.15,1.22-.22.07-.72,0-1.37-.07l-3.96-.43h-.07ZM283.32,135.07v-1.58l2.74.14c.58,0,1.01,0,1.22-.07.43,0,.58-.22.58-.58-.14-.58-.65-1.3-1.66-2.16l.72.07c1.22.86,1.87,1.73,2.02,2.66.14.86-.29,1.37-1.3,1.51-.36.07-.79.07-1.44.07l-2.88-.07ZM283.32,133.49v1.58l-2.23-.14v-1.51l2.23.07h0ZM283.32,138.82v1.51h-.72c-.43,0-.65.22-.58.5,0,.5.43,1.08,1.3,1.66v.72c-.43-.29-.79-.58-1.15-.79-.43-.43-.79-.86-1.08-1.22v-2.09c.22-.22.58-.29,1.01-.36.29,0,.72,0,1.15.07h.07ZM283.32,144.22v1.51c-.36,0-.58-.07-.72,0-.29,0-.5.14-.43.5,0,.36.43.86,1.15,1.51v.5c-1.3-1.01-2.02-1.94-2.09-2.88-.07-.72.29-1.15,1.08-1.22.22,0,.58,0,1.01.07h0ZM283.32,149.04v1.51c-.72,0-1.08.29-1.08.86s.36,1.15,1.08,1.66v1.08c-1.3-1.08-1.87-2.23-1.94-3.53,0-.43.14-.79.5-1.08.29-.36.72-.5,1.22-.5h.22ZM283.32,157.75v1.58c-.07,0-.14-.07-.14-.07-.43,0-.65.14-.72.5,0,.36.29.86.86,1.51v.79c-.29-.29-.58-.58-.86-.79-.79-.86-1.15-1.66-1.15-2.3.07-.94.65-1.37,1.66-1.3.07,0,.22.07.36.07h0ZM283.32,163.08v1.58c-.22-.07-.36-.14-.5-.14-.43,0-.72.14-.72.43,0,.43.36,1.01,1.22,1.8v.79c-.5-.43-.94-.79-1.3-1.22-.43-.5-.72-.94-.94-1.44v-1.3c.07-.14.22-.29.36-.36.29-.22.65-.36,1.08-.29.22,0,.5.07.79.14h0ZM283.32,168.41v1.58l-.22-.07c-.58-.14-.94-.22-1.15-.29-.36,0-.5.14-.5.43-.07.58.43,1.37,1.58,2.52l-.72-.22c-.5-.5-.94-1.01-1.22-1.51v-2.66c.22-.07.5-.14.79-.07.29,0,.72.07,1.37.22l.07.07h0ZM283.32,173.74v1.58c-.43-.58-.94-.94-1.66-1.01-.22-.07-.36-.07-.58-.07v-1.44c.22-.07.36,0,.58,0,.65.14,1.22.43,1.66.94h0ZM283.32,178.27v1.58c-.79-.36-1.51-.94-2.23-1.73v-1.3c.07.07.14.07.14.14.65.58,1.3,1.01,2.09,1.3h0ZM283.32,182.3v1.66l-.86-.36v.07c.29.29.58.5.86.79v.79c-.5-.72-1.22-1.44-2.09-2.3l-.14-.07v-1.66l1.73.79c.14.07.36.14.5.29h0ZM283.32,188.5v1.66c-.07,0-.14,0-.22-.07-.72-.14-1.37-.5-2.02-.94v-1.66c.79.5,1.51.86,2.16,1.01h.07ZM283.32,191.02v.94c-.14-.43-.43-.86-.72-1.44l.65.36.07.14h0ZM283.32,193.54v1.66c-.22.07-.5,0-.79-.07-.22-.07-.65-.29-1.22-.58l-.22-.14v-1.73l.72.36c.58.29.94.5,1.08.58.14,0,.29,0,.43-.07h0ZM281.09,200.45v-1.73c.22-.07.36-.22.43-.43.14-.36,0-.86-.43-1.66v-1.22c.36.43.65.86.86,1.3.58,1.08.72,1.94.5,2.66-.29.65-.72,1.01-1.37,1.08ZM281.09,133.42v1.51h-.36l.29,1.8-.65-.43-.22-1.37-2.38-.07v-1.58l2.09.07-.43-2.88.79.5c0,.65.07,1.3.14,1.8l.14.65h.58ZM281.09,139.1v2.09c-.22-.36-.29-.65-.36-1.01,0-.5.07-.86.36-1.08h0ZM281.09,163.58v1.3c-.07-.29-.14-.58-.14-.79.07-.22.07-.36.14-.5h0ZM281.09,168.19v2.66c-.36-.65-.5-1.15-.5-1.73.07-.43.22-.72.5-.94h0ZM281.09,172.8v1.44c-.43.07-.72.29-.79.72-.07.58.22,1.22.79,1.87v1.3c0-.07-.07-.07-.07-.14-1.15-1.37-1.58-2.66-1.37-3.96.07-.43.29-.79.72-1.01.22-.14.43-.22.72-.22h0ZM281.09,181.22v1.66l-1.51-.72c-.5.5-.79,1.08-.94,1.73-.22.65-.07,1.3.43,1.94.36.5,1.01,1.01,1.87,1.58l.14.07v1.66c-.72-.5-1.37-1.15-1.94-2.02-1.08-1.58-1.37-3.24-.86-4.97.07-.36.29-1.08.65-2.09l2.16,1.15h0ZM281.09,192.67v1.73l-1.51-.86-.07.14c.65.58,1.15,1.15,1.58,1.73v1.22c-.07-.22-.22-.43-.36-.65-.65-1.08-1.44-2.16-2.45-3.1l-.5-.29v-1.8l.5.29,2.81,1.58h0ZM281.09,198.72v1.73c-.36.07-.72,0-1.22-.14-.72-.29-1.44-.65-2.09-1.22v-1.73c.79.58,1.58,1.01,2.3,1.22.43.14.79.22,1.01.14h0ZM277.78,209.59v-.36l.07.07-.07.29h0ZM277.78,204.55v-1.87l.36.29c.5.36.86.58,1.01.65.36.07.58,0,.72-.22.22-.5,0-1.44-.65-2.88l.58.43c.72,1.51.86,2.74.43,3.6-.29.65-.79.86-1.51.5-.22-.07-.58-.22-.94-.5ZM271.22,213.26l-.07.14c.86,1.15,1.44,2.3,1.8,3.46.29,1.15.22,2.02-.14,2.66-.58.94-1.44,1.08-2.66.43-.14-.14-.29-.22-.43-.29v-2.09c.29.29.65.58,1.01.72.72.43,1.22.43,1.44,0,.22-.36.14-1.15-.29-2.38-.36-1.22-.94-2.45-1.73-3.6l-.43-.36v-2.09l.79.72,3.02,2.59c.5.43.79.72,1.01.79.29.14.5.07.65-.14.29-.5.14-1.44-.36-2.95l.58.5c.5,1.66.58,2.81.07,3.6-.36.65-.94.79-1.66.43-.22-.14-.58-.43-1.08-.86l-1.51-1.3h0ZM277.78,133.27v1.44l-.65-1.44h.65ZM277.78,190.8v1.8l-1.08-.65c-.5.58-.86,1.15-1.08,1.73-.29.94.07,1.87,1.08,2.81l1.08.86v1.73c-.65-.5-1.15-1.15-1.66-1.94-1.08-1.66-1.37-3.31-.79-5.11.29-.65.58-1.44.86-2.16l1.58.94h0ZM277.78,202.68l-2.88-2.02c-.36-.22-.72-.43-1.01-.58-.86-.36-1.51-.22-1.87.58-.29.65-.22,1.58.22,2.66.36,1.08,1.08,2.16,2.09,3.31l-.07.14-1.66-1.15c-.5-.36-.94-.58-1.15-.72-.72-.29-1.3-.14-1.58.58-.07.14-.14.29-.14.43v1.22c.07.58.29,1.22.58,1.94l.65.36c-.65-1.37-.86-2.38-.65-2.81.14-.29.36-.36.65-.22.14.07.5.29,1.01.65l3.31,2.3,2.02,1.51.5-1.3v-.36l-2.3-1.58c-2.23-2.95-3.1-4.82-2.66-5.76.07-.29.36-.36.79-.22.14.07.36.22.65.43l3.24,2.23c.07.07.22.14.29.22v-1.87ZM269.71,219.67c-1.15-.79-2.02-2.02-2.59-3.6-.72-1.8-.58-3.53.36-5.11.36-.65.79-1.3,1.3-2.02l.94.94v2.09l-.94-.79c-.58.36-1.08.86-1.37,1.44-.5.86-.36,1.8.43,2.88.58.86,1.22,1.58,1.87,2.09v2.09h0ZM269.71,205.92v1.22c-.07-.43-.07-.86,0-1.22Z"/>
    <path class="cls-2" d="M258.48,157.75c-.43,39.1-29.52,77.11-68.4,92.23v-18.58c18.65-11.02,33.48-29.52,37.22-49.32l31.18-24.34h0ZM190.08,227.09c23.18-16.99,40.1-50.98,29.59-70.85l-29.59,38.38v32.47ZM190.08,249.98c-8.71,3.38-17.93,5.62-27.43,6.48v-15.12c9.5-1.37,18.86-4.82,27.43-9.94v18.58h0ZM190.08,194.62l-27.43,35.5v7.27c9.29,0,18.79-3.96,27.43-10.3v-32.47h0ZM162.65,218.45v-50.9c7.27,14.54,6.91,35.21,0,50.9ZM162.65,256.46c-2.45.22-4.97.36-7.49.36v-14.9c2.52-.07,5.04-.22,7.49-.58v15.12h0ZM162.65,167.54v50.9c-1.94,4.54-4.46,8.57-7.49,12.02v-73.22c3.1,2.88,5.54,6.34,7.49,10.3h0ZM162.65,230.11l-5.26,6.84c1.73.29,3.53.43,5.26.43v-7.27ZM155.16,256.82h-.79c-2.3,0-4.68-.07-6.98-.29v-15.05c2.38.29,4.75.43,7.13.43h.65v14.9h0ZM155.16,157.25v73.22c-.22.22-.36.43-.58.65-2.74-3.6-5.26-7.99-7.2-12.89v-50.54c1.8-3.89,4.18-7.56,7.2-10.94.22.14.36.36.58.5h0ZM147.38,237.38c1.66,0,3.31-.14,4.97-.43l-4.97-6.48v6.91ZM147.38,256.54c-9.58-.65-18.86-2.81-27.65-6.12v-18.94c8.71,5.26,18.14,8.78,27.65,10.01v15.05h0ZM147.38,167.69v50.54c-5.9-14.83-7.56-34.42,0-50.54h0ZM147.38,230.47l-27.65-35.86v32.47c8.71,6.41,18.29,10.37,27.65,10.3v-6.91ZM119.74,250.42c-38.95-14.69-67.68-52.56-68.69-92.66l30.46,23.76c5.04,20.45,19.94,38.95,38.23,49.97v18.94h0ZM119.74,194.62l-29.59-38.38c-10.51,19.87,6.41,53.86,29.59,70.85v-32.47Z"/>
  </g>
</svg>